Source-HROTn_VROTn_SLENx_SANGx.ufo
<glyph name="quotedbl" format="2">
  <advance width="366"/>
  <unicode hex="0022"/>
  <outline>
    <contour>
      <point x="157" y="248" type="curve" name="EVFVTJUV"/>
      <point x="188" y="254" name="PMFATXSO"/>
      <point x="220" y="257" name="QOYJDMDH"/>
      <point x="253" y="259" type="curve" name="QALGNULM"/>
      <point x="288" y="377" name="IZWGUSOZ"/>
      <point x="339" y="446" name="ZADWENJV"/>
      <point x="404" y="458" type="curve" name="AVJUDPEJ"/>
      <point x="365" y="458" name="UCMJBLIP"/>
      <point x="326" y="453" name="YXJAPLRB"/>
      <point x="289" y="445" type="curve" name="VVFOKXFV"/>
      <point x="230" y="433" name="ITFFOEUI"/>
      <point x="185" y="365" name="WYOQOPBT"/>
    </contour>
    <contour>
      <point x="310" y="259" type="curve" name="FOQCWLRM"/>
      <point x="343" y="257" name="XTGBYHFC"/>
      <point x="378" y="254" name="ITVPZLSS"/>
      <point x="413" y="248" type="curve" name="NLHAAEWI"/>
      <point x="448" y="365" name="HWVADHWE"/>
      <point x="499" y="433" name="UJZCGVVM"/>
      <point x="564" y="445" type="curve" name="BJYAGNWU"/>
      <point x="522" y="453" name="PQDEADLN"/>
      <point x="481" y="458" name="TUYEDZTR"/>
      <point x="441" y="458" type="curve" name="HHURZUGO"/>
      <point x="382" y="446" name="HQPSVKNJ"/>
      <point x="337" y="377" name="AGSEPNXI"/>
    </contour>
  </outline>
</glyph>
<glyph name="percent" format="2">
  <advance width="723"/>
  <unicode hex="0025"/>
  <outline>
    <contour>
      <point x="180" y="226" type="curve" name="ODEZRPYM"/>
      <point x="262" y="236" name="GXSJKHQY"/>
      <point x="363" y="320" name="THAFYUIW"/>
      <point x="433" y="380" type="curve" smooth="yes" name="DUQVBBNM"/>
      <point x="502" y="440" name="IZKDWQEO"/>
      <point x="507" y="448" name="AYFDDNSM"/>
      <point x="424" y="438" type="curve" smooth="yes" name="EOCAKEHY"/>
      <point x="342" y="428" name="BTVMVHPM"/>
      <point x="223" y="407" name="TOCUQTDQ"/>
      <point x="154" y="347" type="curve" smooth="yes" name="UOPZMRUE"/>
      <point x="84" y="286" name="AGADNCYM"/>
      <point x="97" y="216" name="LMOAGFDN"/>
      <point x="180" y="226" type="curve" name="NEGEVGBO"/>
      <point x="180" y="226" name="NUYALHIW"/>
      <point x="180" y="226" name="QFPNKZTK"/>
    </contour>
    <contour>
      <point x="77" y="-45" type="curve" name="PBSVJATX"/>
      <point x="109" y="-41" name="IDTJSFCY"/>
      <point x="142" y="-38" name="NFFVYXKN"/>
      <point x="175" y="-37" type="curve" name="JDWFHOFB"/>
      <point x="343" y="248" name="YRUEDCMW"/>
      <point x="554" y="409" name="UADLVFYY"/>
      <point x="797" y="436" type="curve" name="CKCWVDKJ"/>
      <point x="763" y="440" name="BMCYJTUR"/>
      <point x="728" y="443" name="CBEZMPKW"/>
      <point x="695" y="444" type="curve" name="OFLWMSBR"/>
      <point x="453" y="412" name="OPWQDTIC"/>
      <point x="243" y="245" name="TAPFQKKJ"/>
    </contour>
    <contour>
      <point x="244" y="321" type="curve" name="YEBCKDJJ"/>
      <point x="214" y="318" name="IVWMLDOY"/>
      <point x="214" y="338" name="BLDOGXIH"/>
      <point x="244" y="364" type="curve" smooth="yes" name="WATACVLF"/>
      <point x="274" y="389" name="LEFWVALE"/>
      <point x="312" y="402" name="YCUFSAEB"/>
      <point x="342" y="406" type="curve" smooth="yes" name="YBYEDOWN"/>
      <point x="372" y="409" name="MITFRWRT"/>
      <point x="370" y="400" name="VKQEACIU"/>
      <point x="340" y="375" type="curve" smooth="yes" name="OCRKKIZK"/>
      <point x="310" y="349" name="CJGTPRMG"/>
      <point x="274" y="325" name="EYIVCHYN"/>
      <point x="244" y="321" type="curve" name="DCTPUHVN"/>
      <point x="244" y="321" name="JYFXUJOM"/>
      <point x="244" y="321" name="NCFDZHPO"/>
    </contour>
    <contour>
      <point x="456" y="-63" type="curve" name="VYUCDSSR"/>
      <point x="544" y="-73" name="HBKLRHTY"/>
      <point x="637" y="39" name="FPTLHBFY"/>
      <point x="690" y="154" type="curve" smooth="yes" name="NEBQZEJU"/>
      <point x="744" y="267" name="XHOIEWUJ"/>
      <point x="733" y="329" name="QSXTDIPO"/>
      <point x="645" y="339" type="curve" smooth="yes" name="YBYJBUPV"/>
      <point x="556" y="349" name="XBJKWSYO"/>
      <point x="446" y="301" name="XFXDVGJY"/>
      <point x="392" y="187" type="curve" smooth="yes" name="ZOZVBVAX"/>
      <point x="338" y="72" name="JNVXYFGT"/>
      <point x="367" y="-53" name="GOVFRRXY"/>
      <point x="456" y="-63" type="curve" name="XWCLZMTK"/>
      <point x="456" y="-63" name="PGYWWPNS"/>
      <point x="456" y="-63" name="YTPTFVZM"/>
    </contour>
    <contour>
      <point x="504" y="90" type="curve" name="ZXJJWDYX"/>
      <point x="471" y="93" name="VJMKLGJW"/>
      <point x="466" y="133" name="ZDDEGLGX"/>
      <point x="489" y="182" type="curve" smooth="yes" name="WFNZQMMY"/>
      <point x="513" y="231" name="OIUDZFPK"/>
      <point x="547" y="253" name="SOCBKLJT"/>
      <point x="579" y="250" type="curve" smooth="yes" name="ZCXMDSRR"/>
      <point x="611" y="246" name="AUEKXZMS"/>
      <point x="615" y="219" name="PQZNHRUO"/>
      <point x="592" y="170" type="curve" smooth="yes" name="DUZRNUJC"/>
      <point x="569" y="121" name="OTUEDTVU"/>
      <point x="536" y="86" name="OFVJHMIQ"/>
      <point x="504" y="90" type="curve" name="IVBNGEYH"/>
      <point x="504" y="90" name="QYGCKMNB"/>
      <point x="504" y="90" name="CTDLKJXZ"/>
    </contour>
  </outline>
</glyph>
<glyph name="comma" format="2">
  <advance width="211"/>
  <unicode hex="002C"/>
  <outline>
    <contour>
      <point x="-128" y="-104" type="curve" name="HJDGNTEJ"/>
      <point x="-96" y="-98" name="IDWTCQML"/>
      <point x="-62" y="-95" name="SKUZZZBZ"/>
      <point x="-28" y="-98" type="curve" name="PACAEACX"/>
      <point x="21" y="20" name="OLLTEOFE"/>
      <point x="88" y="86" name="ITCEFQLP"/>
      <point x="167" y="96" type="curve" name="REMWPBID"/>
      <point x="126" y="103" name="GBCOJPPA"/>
      <point x="85" y="105" name="CGFRFOXM"/>
      <point x="46" y="100" type="curve" name="DMWWMRIV"/>
      <point x="-27" y="86" name="ZTBMLCJP"/>
      <point x="-86" y="16" name="RHBIZKAT"/>
    </contour>
  </outline>
</glyph>
<glyph name="slash" format="2">
  <advance width="346"/>
  <unicode hex="002F"/>
  <outline>
    <contour>
      <point x="-160" y="-196" type="curve" name="UBVWNORH"/>
      <point x="-123" y="-189" name="BKYDZCYI"/>
      <point x="-85" y="-183" name="HFAPIQPZ"/>
      <point x="-47" y="-181" type="curve" name="NRGVJFRE"/>
      <point x="124" y="214" name="VVCKEXCW"/>
      <point x="356" y="432" name="THTHWGUE"/>
      <point x="634" y="462" type="curve" name="CSULRHDR"/>
      <point x="594" y="469" name="LIDXXZCL"/>
      <point x="552" y="475" name="UWAXRRTF"/>
      <point x="513" y="477" type="curve" name="ZJUKMOXV"/>
      <point x="238" y="437" name="DHDRNXEW"/>
      <point x="9" y="209" name="QOEWJFQM"/>
    </contour>
  </outline>
</glyph>
<glyph name="four" format="2">
  <advance width="413"/>
  <unicode hex="0034"/>
  <outline>
    <contour>
      <point x="-22" y="83" type="curve" name="YIXCNHBW"/>
      <point x="41" y="97" name="SQGNSGKM"/>
      <point x="108" y="104" name="JWWQHQRZ"/>
      <point x="175" y="103" type="curve" name="QSIKQYVO"/>
      <point x="158" y="57" name="MTUKLCXP"/>
      <point x="142" y="7" name="AFKCIPCR"/>
      <point x="128" y="-47" type="curve" name="SPTMINLY"/>
      <point x="168" y="-48" name="PFHVWYME"/>
      <point x="210" y="-51" name="KHSDEIZQ"/>
      <point x="251" y="-56" type="curve" name="FEXLNFNA"/>
      <point x="266" y="-1" name="FDOVSQWE"/>
      <point x="281" y="49" name="YLTWRZGH"/>
      <point x="298" y="95" type="curve" name="UIVZWWCN"/>
      <point x="321" y="92" name="DHAEXAML"/>
      <point x="346" y="88" name="GHVMOZWH"/>
      <point x="369" y="83" type="curve" name="MIPIXCBJ"/>
      <point x="389" y="139" name="VLMLARUL"/>
      <point x="413" y="190" name="ZMIAPIKV"/>
      <point x="438" y="231" type="curve" name="MVATSVKX"/>
      <point x="415" y="235" name="RGCYUIFP"/>
      <point x="390" y="239" name="TGOEAXVS"/>
      <point x="368" y="242" type="curve" name="ZTXHEJYS"/>
      <point x="429" y="344" name="QKUTOKDH"/>
      <point x="505" y="407" name="DUQQQIKR"/>
      <point x="591" y="425" type="curve" name="NOZNRRFR"/>
      <point x="529" y="433" name="XWUTYUZM"/>
      <point x="467" y="435" name="JMADEXJH"/>
      <point x="407" y="432" type="curve" name="JQPIENOT"/>
      <point x="276" y="411" name="GGHFWAOB"/>
      <point x="152" y="342" name="CNBPDQXQ"/>
      <point x="47" y="231" type="curve" name="RWJFWNYJ"/>
      <point x="22" y="190" name="AXWPYLJE"/>
      <point x="-2" y="139" name="EQJJMFJR"/>
    </contour>
    <contour>
      <point x="169" y="248" type="curve" name="QBJKWZCN"/>
      <point x="229" y="308" name="LDLVLZVX"/>
      <point x="297" y="356" name="VYUCQHNG"/>
      <point x="365" y="388" type="curve" name="ACMOKOQU"/>
      <point x="321" y="356" name="QDFOIILC"/>
      <point x="280" y="309" name="WEKGOZIZ"/>
      <point x="244" y="250" type="curve" name="LQZDJKJQ"/>
      <point x="219" y="250" name="KYTMYXHX"/>
      <point x="194" y="250" name="IIHJJCTB"/>
    </contour>
  </outline>
</glyph>
<glyph name="five" format="2">
  <advance width="367"/>
  <unicode hex="0035"/>
  <outline>
    <contour>
      <point x="64" y="232" type="curve" name="IKHYTIQU"/>
      <point x="179" y="273" name="MAJGGSYH"/>
      <point x="256" y="258" name="CKEAUSCI"/>
      <point x="222" y="187" type="curve" smooth="yes" name="LWTWNHEW"/>
      <point x="187" y="115" name="IPYGAKSG"/>
      <point x="103" y="120" name="JYCGUNHK"/>
      <point x="15" y="146" type="curve" name="MUUBRXQT"/>
      <point x="-9" y="93" name="QIQIFICA"/>
      <point x="-31" y="31" name="DETWQXRX"/>
      <point x="-50" y="-36" type="curve" name="VWSIZMBU"/>
      <point x="85" y="-88" name="JAJIVCBA"/>
      <point x="258" y="-11" name="UKWAQDON"/>
      <point x="350" y="176" type="curve" smooth="yes" name="IRGJHKNB"/>
      <point x="415" y="307" name="VZXUYLHR"/>
      <point x="384" y="355" name="BAFBLHZQ"/>
      <point x="264" y="349" type="curve" name="MUBHAIFK"/>
      <point x="280" y="364" name="BQUXZLEF"/>
      <point x="299" y="377" name="DKXONOCL"/>
      <point x="316" y="388" type="curve" name="XGURWCWQ"/>
      <point x="368" y="389" name="LBDRHWCX"/>
      <point x="424" y="385" name="ZIHYMNUC"/>
      <point x="479" y="376" type="curve" name="DENRQXTC"/>
      <point x="509" y="397" name="FVHTSAFL"/>
      <point x="544" y="412" name="ETXKRCQS"/>
      <point x="578" y="419" type="curve" name="HGTMVYUA"/>
      <point x="487" y="434" name="LGGXRJEY"/>
      <point x="396" y="435" name="RHEEYHFI"/>
      <point x="313" y="421" type="curve" name="XFETQPHI"/>
      <point x="219" y="401" name="KAKAVPYM"/>
      <point x="134" y="336" name="EHZGRAWQ"/>
    </contour>
  </outline>
</glyph>
<glyph name="six" format="2">
  <advance width="399"/>
  <unicode hex="0036"/>
  <outline>
    <contour>
      <point x="483" y="366" type="curve" name="XXXSDYMD"/>
      <point x="516" y="392" name="RESDQBMY"/>
      <point x="552" y="410" name="VRIPSTTF"/>
      <point x="590" y="421" type="curve" name="PSUQGXST"/>
      <point x="433" y="465" name="QXWCIZXV"/>
      <point x="204" y="471" name="OEDFHOPB"/>
      <point x="61" y="256" type="curve" smooth="yes" name="HEMZCZLA"/>
      <point x="-46" y="96" name="LTIUKOMN"/>
      <point x="-3" y="-58" name="CETEAWCV"/>
      <point x="106" y="-59" type="curve" smooth="yes" name="AABCEIGZ"/>
      <point x="215" y="-59" name="XDFMUSAN"/>
      <point x="325" y="65" name="ZUVKSUWZ"/>
      <point x="388" y="187" type="curve" smooth="yes" name="KBRGZOMR"/>
      <point x="486" y="377" name="VRLMYGGG"/>
      <point x="358" y="392" name="RZUMOBFQ"/>
      <point x="226" y="332" type="curve" name="DKLZBVRH"/>
      <point x="296" y="402" name="MFDIYTMK"/>
      <point x="416" y="411" name="GPGRZPRQ"/>
      <point x="483" y="366" type="curve" name="KFQDSRDJ"/>
      <point x="483" y="366" name="ZCVDZXWD"/>
      <point x="483" y="366" name="NMKHXFMG"/>
    </contour>
    <contour>
      <point x="164" y="122" type="curve" name="RGWNONTK"/>
      <point x="130" y="122" name="GJNQYAZH"/>
      <point x="122" y="158" name="BCEVNZMN"/>
      <point x="145" y="203" type="curve" smooth="yes" name="WKQDMNPY"/>
      <point x="167" y="246" name="ZNQHNEQX"/>
      <point x="206" y="272" name="AIZMCUYL"/>
      <point x="240" y="272" type="curve" smooth="yes" name="RVOFEHDQ"/>
      <point x="275" y="271" name="USFPYLGC"/>
      <point x="283" y="245" name="UHJTVWFN"/>
      <point x="260" y="200" type="curve" smooth="yes" name="VRPGVAJM"/>
      <point x="237" y="156" name="AGKDWDQP"/>
      <point x="199" y="122" name="VXENSWIB"/>
      <point x="164" y="122" type="curve" name="RKRDHPUN"/>
      <point x="164" y="122" name="KDOLSLAG"/>
      <point x="164" y="122" name="ZECEUEFJ"/>
    </contour>
  </outline>
</glyph>
<glyph name="eight" format="2">
  <advance width="396"/>
  <unicode hex="0038"/>
  <outline>
    <contour>
      <point x="99" y="-61" type="curve" name="DOFMKEDY"/>
      <point x="202" y="-61" name="GMCIIINK"/>
      <point x="310" y="36" name="EISBSPGO"/>
      <point x="366" y="156" type="curve" smooth="yes" name="MKVKRRBB"/>
      <point x="396" y="222" name="YCDHPJRS"/>
      <point x="398" y="264" name="BYHRSRAF"/>
      <point x="377" y="291" type="curve" name="ABYWJPRQ"/>
      <point x="424" y="308" name="BOJHESWY"/>
      <point x="467" y="334" name="UCDYIMDR"/>
      <point x="502" y="363" type="curve" smooth="yes" name="OXXMJZUI"/>
      <point x="570" y="419" name="LULWKPZY"/>
      <point x="552" y="441" name="HLNFOSPY"/>
      <point x="454" y="441" type="curve" smooth="yes" name="OUGICIXE"/>
      <point x="356" y="441" name="IAGLPLVV"/>
      <point x="229" y="419" name="VLBPLNCV"/>
      <point x="161" y="363" type="curve" smooth="yes" name="ZFVYYODD"/>
      <point x="126" y="334" name="JNILWGOC"/>
      <point x="120" y="308" name="AEWDVHLQ"/>
      <point x="134" y="291" type="curve" name="CHVXHYMR"/>
      <point x="83" y="264" name="LJRFXHQL"/>
      <point x="36" y="222" name="AHHDNXHS"/>
      <point x="5" y="156" type="curve" smooth="yes" name="RTAZHXOF"/>
      <point x="-50" y="36" name="CTFZRPUR"/>
      <point x="-5" y="-61" name="DQHLAGKS"/>
      <point x="99" y="-61" type="curve" name="AYCRFBKV"/>
      <point x="99" y="-61" name="CVNROQOA"/>
      <point x="99" y="-61" name="FWKBVASS"/>
    </contour>
    <contour>
      <point x="287" y="340" type="curve" name="EOYEYDXK"/>
      <point x="257" y="340" name="KRSHIPAQ"/>
      <point x="251" y="355" name="BZUFEZGD"/>
      <point x="272" y="373" type="curve" smooth="yes" name="TOYZQIDQ"/>
      <point x="292" y="390" name="WPNUVNRR"/>
      <point x="327" y="401" name="MYZPRHSB"/>
      <point x="358" y="400" type="curve" smooth="yes" name="RQGKYOET"/>
      <point x="387" y="400" name="PASTMJFG"/>
      <point x="392" y="390" name="PROVXJWD"/>
      <point x="372" y="373" type="curve" smooth="yes" name="IOHRTIRM"/>
      <point x="351" y="355" name="CCYOLLDZ"/>
      <point x="317" y="340" name="QPPUAFBP"/>
      <point x="287" y="340" type="curve" name="ZYRTIEPK"/>
      <point x="287" y="340" name="FWNSCVWC"/>
      <point x="287" y="340" name="KKIHZGKD"/>
    </contour>
    <contour>
      <point x="156" y="115" type="curve" name="DMBCBELI"/>
      <point x="122" y="115" name="CHLABBWP"/>
      <point x="110" y="146" name="LLNSAIUO"/>
      <point x="129" y="185" type="curve" smooth="yes" name="GACEOBPY"/>
      <point x="149" y="226" name="EQYIXOGQ"/>
      <point x="188" y="251" name="NPSASKPS"/>
      <point x="221" y="251" type="curve" smooth="yes" name="IXJATNYN"/>
      <point x="254" y="251" name="IVCVRRFV"/>
      <point x="264" y="226" name="BNLDSDEK"/>
      <point x="245" y="185" type="curve" smooth="yes" name="BOOPPMME"/>
      <point x="226" y="145" name="APGEUQZO"/>
      <point x="188" y="115" name="WIKUNKCK"/>
      <point x="156" y="115" type="curve" name="MCWGYAPG"/>
      <point x="156" y="115" name="FXJEVWXT"/>
      <point x="156" y="115" name="WDPPZZFT"/>
    </contour>
  </outline>
</glyph>
<glyph name="nine" format="2">
  <advance width="399"/>
  <unicode hex="0039"/>
  <outline>
    <contour>
      <point x="31" y="152" type="curve" name="KNTYXKDF"/>
      <point x="7" y="98" name="SDTFQBIH"/>
      <point x="-16" y="32" name="EUUTGHZT"/>
      <point x="-35" y="-38" type="curve" name="VPLBPZZQ"/>
      <point x="126" y="-98" name="NAXBTFNC"/>
      <point x="298" y="90" name="KMVXKAVW"/>
      <point x="446" y="288" type="curve" smooth="yes" name="SJRKJRBX"/>
      <point x="557" y="436" name="GPUPAYIW"/>
      <point x="557" y="442" name="DXZNZPYS"/>
      <point x="448" y="441" type="curve" smooth="yes" name="EKFYQRPH"/>
      <point x="339" y="441" name="YLVWTBKJ"/>
      <point x="200" y="415" name="ARBXDBSO"/>
      <point x="124" y="340" type="curve" smooth="yes" name="UPVNOYHG"/>
      <point x="5" y="223" name="YOBFIAST"/>
      <point x="145" y="164" name="IMCSKHBY"/>
      <point x="274" y="236" type="curve" name="QOHOCOSG"/>
      <point x="212" y="139" name="QOEDONEH"/>
      <point x="98" y="108" name="JRPKWXSD"/>
      <point x="31" y="152" type="curve" name="HMHZWJFL"/>
      <point x="31" y="152" name="XWEYKGGE"/>
      <point x="31" y="152" name="MYLGLHHI"/>
    </contour>
    <contour>
      <point x="350" y="400" type="curve" name="QVHTSORV"/>
      <point x="384" y="400" name="XJLXOELD"/>
      <point x="386" y="385" name="HOGXGMNK"/>
      <point x="357" y="356" type="curve" smooth="yes" name="CFSCESZC"/>
      <point x="331" y="330" name="RLJJZSHJ"/>
      <point x="290" y="309" name="HUUPMIMH"/>
      <point x="256" y="309" type="curve" smooth="yes" name="LBRUTRTA"/>
      <point x="222" y="308" name="PPJMRLKE"/>
      <point x="215" y="331" name="ZFQSNEYB"/>
      <point x="243" y="358" type="curve" smooth="yes" name="IYAJMSNA"/>
      <point x="271" y="385" name="OPLGAUAW"/>
      <point x="315" y="400" name="QDPBDEJP"/>
      <point x="350" y="400" type="curve" name="JNZYIDLT"/>
      <point x="350" y="400" name="AAEWANST"/>
      <point x="350" y="400" name="TBROMEOP"/>
    </contour>
  </outline>
</glyph>
<glyph name="at" format="2">
  <advance width="676"/>
  <unicode hex="0040"/>
  <outline>
    <contour>
      <point x="316" y="-136" type="curve" name="FQZAFNCQ"/>
      <point x="331" y="-85" name="LXXKHWFQ"/>
      <point x="347" y="-35" name="NXPTJDYG"/>
      <point x="364" y="11" type="curve" name="VPYNEDCH"/>
      <point x="130" y="-84" name="TICFWEAE"/>
      <point x="13" y="64" name="QOBITSYY"/>
      <point x="133" y="236" type="curve" smooth="yes" name="DZUTLLSC"/>
      <point x="223" y="366" name="ZODSNTSK"/>
      <point x="399" y="412" name="VHIYUKQK"/>
      <point x="533" y="412" type="curve" smooth="yes" name="IEQUALJJ"/>
      <point x="662" y="411" name="TXYKVUZA"/>
      <point x="682" y="371" name="UYWEINTU"/>
      <point x="601" y="268" type="curve" smooth="yes" name="SLKFSWHS"/>
      <point x="559" y="215" name="YEJVLEML"/>
      <point x="506" y="180" name="WKIOVEOH"/>
      <point x="480" y="182" type="curve" smooth="yes" name="KRYHFXAU"/>
      <point x="464" y="184" name="ERMZJYFA"/>
      <point x="462" y="195" name="GDRXFGPU"/>
      <point x="473" y="212" type="curve" smooth="yes" name="DVQLKDAE"/>
      <point x="512" y="276" name="MRZQRHLD"/>
      <point x="556" y="327" name="PIMFULUH"/>
      <point x="603" y="363" type="curve" name="RFIXBLPI"/>
      <point x="572" y="366" name="XEMBRBXY"/>
      <point x="540" y="368" name="FUIEHKVA"/>
      <point x="510" y="369" type="curve" name="ONFSCQTZ"/>
      <point x="505" y="366" name="LXCNBPVE"/>
      <point x="501" y="361" name="JXMLWDKL"/>
      <point x="496" y="358" type="curve" name="UJGGTJDO"/>
      <point x="490" y="369" name="HSBSKVAC"/>
      <point x="475" y="375" name="UOXZARYZ"/>
      <point x="449" y="374" type="curve" smooth="yes" name="XGIFKWIW"/>
      <point x="379" y="373" name="JAQZHOZU"/>
      <point x="269" y="337" name="SOQPNWLS"/>
      <point x="206" y="248" type="curve" smooth="yes" name="GYBVVHZQ"/>
      <point x="144" y="159" name="CPCDWZSV"/>
      <point x="170" y="76" name="IBFVDCQZ"/>
      <point x="241" y="76" type="curve" smooth="yes" name="CGGTEDDF"/>
      <point x="279" y="76" name="VWREYUDU"/>
      <point x="320" y="98" name="AVCCNGYW"/>
      <point x="356" y="128" type="curve" name="QZUPUKSB"/>
      <point x="360" y="99" name="OVHPASBG"/>
      <point x="378" y="80" name="WHRZIXUD"/>
      <point x="412" y="77" type="curve" smooth="yes" name="GEVITFRM"/>
      <point x="496" y="69" name="YRQOLTWD"/>
      <point x="614" y="153" name="FRKBGAUP"/>
      <point x="698" y="257" type="curve" smooth="yes" name="PMFLCHND"/>
      <point x="814" y="401" name="ZWBTEVGC"/>
      <point x="791" y="437" name="IHAFHYGC"/>
      <point x="612" y="438" type="curve" smooth="yes" name="QXXOKDSK"/>
      <point x="426" y="439" name="SRHBXOJX"/>
      <point x="170" y="400" name="FDUUZIDX"/>
      <point x="45" y="219" type="curve" smooth="yes" name="LVWFWUYH"/>
      <point x="-112" y="-9" name="MBQAJLCS"/>
      <point x="31" y="-245" name="PSAFIGMA"/>
      <point x="316" y="-136" type="curve" name="BPEMZDQQ"/>
      <point x="316" y="-136" name="GJJGLNVQ"/>
      <point x="316" y="-136" name="UOAJPJAM"/>
    </contour>
    <contour>
      <point x="309" y="189" type="curve" name="EMOTFFFK"/>
      <point x="277" y="189" name="OYFKMIOH"/>
      <point x="273" y="216" name="DMJXAUVV"/>
      <point x="299" y="254" type="curve" smooth="yes" name="DZHUMLQS"/>
      <point x="326" y="291" name="PMKRWBNE"/>
      <point x="363" y="310" name="QXHJBGKE"/>
      <point x="394" y="310" type="curve" smooth="yes" name="LVTOXYBI"/>
      <point x="426" y="310" name="RNEWXPDQ"/>
      <point x="429" y="291" name="AMDFMIGB"/>
      <point x="403" y="254" type="curve" smooth="yes" name="VUQSOBLA"/>
      <point x="377" y="217" name="CKFLGXGA"/>
      <point x="340" y="189" name="SAURCMSP"/>
      <point x="309" y="189" type="curve" name="SAEYXHYD"/>
      <point x="309" y="189" name="ADSKUVWY"/>
      <point x="309" y="189" name="KQJHCKLW"/>
    </contour>
  </outline>
</glyph>
<glyph name="A" format="2">
  <advance width="471"/>
  <unicode hex="0041"/>
  <outline>
    <contour>
      <point x="-84" y="-69" type="curve" name="VSHALMGC"/>
      <point x="-45" y="-61" name="WSVKSJHD"/>
      <point x="-4" y="-54" name="PRFCIODM"/>
      <point x="35" y="-51" type="curve" name="JYCGCYYN"/>
      <point x="59" y="5" name="KXFJSKKY"/>
      <point x="83" y="56" name="KLUQNRFV"/>
      <point x="109" y="102" type="curve" name="UMRJARCX"/>
      <point x="161" y="106" name="NJOBXEGL"/>
      <point x="216" y="106" name="LHQYFAME"/>
      <point x="271" y="102" type="curve" name="XUPZKIVD"/>
      <point x="263" y="56" name="ASHYXYAB"/>
      <point x="256" y="5" name="WRRUGEOT"/>
      <point x="251" y="-51" type="curve" name="OXYNFWVH"/>
      <point x="293" y="-54" name="GIFICFXT"/>
      <point x="337" y="-61" name="NNGAJFQK"/>
      <point x="381" y="-69" type="curve" name="JHBKOGTE"/>
      <point x="404" y="226" name="VGBXJRGV"/>
      <point x="468" y="397" name="HGSPTSWA"/>
      <point x="567" y="432" type="curve" name="JSDVVQLS"/>
      <point x="510" y="436" name="ZKROCOOS"/>
      <point x="453" y="436" name="BFJNYVVN"/>
      <point x="398" y="432" type="curve" name="DSLSPMIN"/>
      <point x="201" y="397" name="FEBOBFIY"/>
      <point x="37" y="226" name="YYKGVVQI"/>
    </contour>
    <contour>
      <point x="204" y="243" type="curve" name="DKNCFITY"/>
      <point x="257" y="307" name="WIIRQLBW"/>
      <point x="317" y="356" name="LBPCAXFS"/>
      <point x="380" y="390" type="curve" name="OHLZNRVZ"/>
      <point x="350" y="356" name="HEMNQQMC"/>
      <point x="324" y="308" name="FJGHROUE"/>
      <point x="304" y="243" type="curve" name="LUQYXVRA"/>
      <point x="270" y="244" name="WQNSCEAO"/>
      <point x="237" y="244" name="DUARTBAJ"/>
    </contour>
  </outline>
</glyph>
<glyph name="D" format="2">
  <advance width="478"/>
  <unicode hex="0044"/>
  <outline>
    <contour>
      <point x="-41" y="-68" type="curve" name="BKEYABKG"/>
      <point x="12" y="-57" name="QXTIYHOI"/>
      <point x="68" y="-49" name="KDRCVAGJ"/>
      <point x="124" y="-47" type="curve" smooth="yes" name="DLFNBILG"/>
      <point x="261" y="-43" name="VVYWQTWY"/>
      <point x="416" y="132" name="YGTCLKZA"/>
      <point x="513" y="269" type="curve" smooth="yes" name="ZQKFKCDO"/>
      <point x="610" y="407" name="SIJURBSY"/>
      <point x="601" y="438" name="AMDXFJTM"/>
      <point x="464" y="434" type="curve" smooth="yes" name="XMTGABFQ"/>
      <point x="408" y="431" name="YBRMIBXB"/>
      <point x="352" y="424" name="WZRQUGGX"/>
      <point x="299" y="413" type="curve" name="LVMRCACJ"/>
      <point x="149" y="382" name="KLVWJOFO"/>
      <point x="33" y="218" name="GTSMKTAM"/>
    </contour>
    <contour>
      <point x="365" y="390" type="curve" smooth="yes" name="AIXFDBQE"/>
      <point x="435" y="392" name="JWZSGGZS"/>
      <point x="435" y="361" name="KMBWWKRG"/>
      <point x="383" y="287" type="curve" smooth="yes" name="EXXSUGAG"/>
      <point x="330" y="213" name="TGYOAAEC"/>
      <point x="253" y="135" name="CDWCBPJA"/>
      <point x="183" y="133" type="curve" smooth="yes" name="XOGKZYJW"/>
      <point x="167" y="132" name="VSWPPHLM"/>
      <point x="152" y="131" name="XKAYWOZX"/>
      <point x="136" y="130" type="curve" name="NRTNRGFZ"/>
      <point x="186" y="251" name="CLCKRPEC"/>
      <point x="247" y="339" name="DPQEQFFP"/>
      <point x="318" y="388" type="curve" name="PSZMMABK"/>
      <point x="334" y="388" name="RYASSLLL"/>
      <point x="349" y="390" name="LIMYWSOJ"/>
    </contour>
  </outline>
</glyph>
<glyph name="F" format="2">
  <advance width="366"/>
  <unicode hex="0046"/>
  <outline>
    <contour>
      <point x="-42" y="-64" type="curve" name="FXRIPEMK"/>
      <point x="-4" y="-57" name="VLGQNGRP"/>
      <point x="37" y="-52" name="FCNDBTQS"/>
      <point x="77" y="-50" type="curve" name="JFBXQMZX"/>
      <point x="105" y="55" name="GZQKMEJK"/>
      <point x="139" y="146" name="TCLSNDXY"/>
      <point x="177" y="218" type="curve" name="ZWDUHPXJ"/>
      <point x="226" y="219" name="CLBRSVSG"/>
      <point x="279" y="215" name="SJCHWJQK"/>
      <point x="331" y="207" type="curve" name="KLEYNLSW"/>
      <point x="354" y="249" name="UFCROLTU"/>
      <point x="379" y="286" name="ZXUEKVQB"/>
      <point x="405" y="316" type="curve" name="UWFEVBYG"/>
      <point x="353" y="325" name="DSEPKFLX"/>
      <point x="301" y="329" name="IXEFNRAI"/>
      <point x="252" y="327" type="curve" name="MGZGWUDH"/>
      <point x="272" y="351" name="OJRBUDBV"/>
      <point x="295" y="371" name="CXFKHKYW"/>
      <point x="318" y="388" type="curve" name="HISQWNJY"/>
      <point x="372" y="389" name="YYOCHLPH"/>
      <point x="429" y="384" name="LZZGOKOO"/>
      <point x="487" y="373" type="curve" name="SGMXMHKD"/>
      <point x="518" y="394" name="UYATJIKH"/>
      <point x="552" y="409" name="BVRJYRMH"/>
      <point x="586" y="417" type="curve" name="RZMEPEOB"/>
      <point x="485" y="436" name="AIVYAXFP"/>
      <point x="387" y="436" name="CDEWLYDO"/>
      <point x="298" y="417" type="curve" name="IRXVVCBV"/>
      <point x="149" y="385" name="RJMOEIKM"/>
      <point x="33" y="221" name="LHJLIALC"/>
    </contour>
  </outline>
</glyph>
<glyph name="G" format="2">
  <advance width="475"/>
  <unicode hex="0047"/>
  <outline>
    <contour>
      <point x="355" y="-18" type="curve" name="XVTFWKEY"/>
      <point x="399" y="129" name="TPBXTBOG"/>
      <point x="455" y="242" name="YDFHFORM"/>
      <point x="521" y="315" type="curve" name="VZZWOITU"/>
      <point x="452" y="328" name="DTSPYNVL"/>
      <point x="383" y="335" name="NMGZCXKX"/>
      <point x="318" y="335" type="curve" name="TIOHRQWZ"/>
      <point x="291" y="306" name="YUDIQCGP"/>
      <point x="266" y="269" name="CKERWEID"/>
      <point x="243" y="229" type="curve" name="NXBHVIXA"/>
      <point x="270" y="228" name="OWDQGLVF"/>
      <point x="297" y="228" name="ISXXBHOA"/>
      <point x="324" y="225" type="curve" name="UVDSWROQ"/>
      <point x="307" y="196" name="LPJKRSBH"/>
      <point x="292" y="163" name="AFETXZKH"/>
      <point x="277" y="127" type="curve" name="TXHNJPMO"/>
      <point x="259" y="124" name="HNURESUQ"/>
      <point x="242" y="123" name="RZTFCVDW"/>
      <point x="226" y="123" type="curve" smooth="yes" name="KHYAIGYZ"/>
      <point x="154" y="126" name="PULJWXJR"/>
      <point x="138" y="209" name="DZHGDUKP"/>
      <point x="195" y="289" type="curve" smooth="yes" name="QQKEXZSU"/>
      <point x="281" y="410" name="PSCZXWBX"/>
      <point x="439" y="431" name="NTVRZAGI"/>
      <point x="553" y="361" type="curve" name="OBUAKABI"/>
      <point x="585" y="387" name="XYQYRGWZ"/>
      <point x="620" y="406" name="MWWQCODZ"/>
      <point x="656" y="417" type="curve" name="RNEYDFSI"/>
      <point x="466" y="484" name="OYVUEAQI"/>
      <point x="198" y="450" name="WFJYZUOD"/>
      <point x="70" y="267" type="curve" smooth="yes" name="LVSALXGT"/>
      <point x="-60" y="80" name="TPXXYBWX"/>
      <point x="45" y="-137" name="WPROZDPP"/>
      <point x="355" y="-18" type="curve" name="LEANBZHL"/>
      <point x="355" y="-18" name="KCDQFSWJ"/>
      <point x="355" y="-18" name="GVEKNTVK"/>
    </contour>
  </outline>
</glyph>
<glyph name="H" format="2">
  <advance width="491"/>
  <unicode hex="0048"/>
  <outline>
    <contour>
      <point x="78" y="-50" type="curve" name="WCBBECCN"/>
      <point x="108" y="64" name="JCDYTCJL"/>
      <point x="146" y="163" name="DVWIGRUM"/>
      <point x="188" y="236" type="curve" name="TFYOPQKM"/>
      <point x="236" y="240" name="ILQITLAK"/>
      <point x="288" y="240" name="VAHIYAIO"/>
      <point x="338" y="236" type="curve" name="NTWWDYMW"/>
      <point x="296" y="163" name="WBPJVHLR"/>
      <point x="259" y="64" name="KGXHMLTK"/>
      <point x="228" y="-50" type="curve" name="MSLCJUPL"/>
      <point x="270" y="-53" name="DLXIHISV"/>
      <point x="314" y="-59" name="XMMRMZPN"/>
      <point x="357" y="-67" type="curve" name="LEHEGQIU"/>
      <point x="432" y="218" name="UJNCCEIN"/>
      <point x="548" y="382" name="OGZKLDEL"/>
      <point x="697" y="414" type="curve" name="EDIQXMGB"/>
      <point x="654" y="422" name="PXXAGWZW"/>
      <point x="610" y="428" name="HMQJHDHZ"/>
      <point x="568" y="431" type="curve" name="OXQQKLXH"/>
      <point x="514" y="419" name="QZRGFQRI"/>
      <point x="464" y="390" name="YNLQBOWI"/>
      <point x="420" y="347" type="curve" name="AEUYOUKQ"/>
      <point x="369" y="350" name="KRAUNTTO"/>
      <point x="318" y="350" name="GMLFOBPN"/>
      <point x="269" y="347" type="curve" name="PCAKUFIK"/>
      <point x="314" y="390" name="TNPEOMLR"/>
      <point x="364" y="419" name="TNSHEILJ"/>
      <point x="418" y="431" type="curve" name="OYADZISU"/>
      <point x="378" y="428" name="XNUMRZOI"/>
      <point x="338" y="422" name="ZNWVUIXN"/>
      <point x="299" y="414" type="curve" name="NTGBTNAN"/>
      <point x="150" y="382" name="QERXBSDB"/>
      <point x="34" y="218" name="XYRNLPWS"/>
      <point x="-41" y="-67" type="curve" name="HETRWSBZ"/>
      <point x="-2" y="-59" name="CHEPODRB"/>
      <point x="38" y="-53" name="VFSPPKAR"/>
    </contour>
  </outline>
</glyph>
<glyph name="K" format="2">
  <advance width="457"/>
  <unicode hex="004B"/>
  <outline>
    <contour>
      <point x="-41" y="-68" type="curve" name="UAIGILXV"/>
      <point x="-2" y="-59" name="YVBKUOSO"/>
      <point x="38" y="-54" name="VAWQWQWZ"/>
      <point x="78" y="-50" type="curve" name="ZXZIHMEH"/>
      <point x="109" y="69" name="LONDLLWA"/>
      <point x="148" y="169" name="EDKSFRZN"/>
      <point x="192" y="244" type="curve" name="LRQHAWYC"/>
      <point x="195" y="173" name="WIDKCPWJ"/>
      <point x="206" y="74" name="YMLBPACX"/>
      <point x="223" y="-49" type="curve" name="TKHLPUOL"/>
      <point x="273" y="-52" name="FOMAJGVF"/>
      <point x="325" y="-58" name="QEVMSJSM"/>
      <point x="376" y="-68" type="curve" name="MQCTQWXR"/>
      <point x="350" y="95" name="IWWDSIHV"/>
      <point x="335" y="220" name="ZTJYLJNY"/>
      <point x="332" y="301" type="curve" name="HVVCRDJM"/>
      <point x="446" y="373" name="XWTNTPUN"/>
      <point x="573" y="411" name="JURUULAW"/>
      <point x="707" y="415" type="curve" name="XZNCWVSG"/>
      <point x="659" y="424" name="TZUMCIOY"/>
      <point x="609" y="430" name="QDUQLMPV"/>
      <point x="562" y="432" type="curve" name="BVSAZEWL"/>
      <point x="455" y="423" name="YJLIXMKZ"/>
      <point x="353" y="390" name="NCYXOZCO"/>
      <point x="260" y="336" type="curve" name="TJYHTKSX"/>
      <point x="306" y="386" name="BZDHSNRR"/>
      <point x="360" y="418" name="UBKUYKGF"/>
      <point x="418" y="431" type="curve" name="PGWDZBPB"/>
      <point x="378" y="427" name="XQWSGRKJ"/>
      <point x="338" y="421" name="BUNFGAAV"/>
      <point x="299" y="413" type="curve" name="YCISUSSL"/>
      <point x="150" y="381" name="QGTYSOYQ"/>
      <point x="34" y="217" name="KQRSJCGJ"/>
    </contour>
  </outline>
</glyph>
<glyph name="N" format="2">
  <advance width="491"/>
  <unicode hex="004E"/>
  <outline>
    <contour>
      <point x="-41" y="-67" type="curve" name="KVIRNXYP"/>
      <point x="-3" y="-59" name="LFUIXXYO"/>
      <point x="36" y="-54" name="BOYXARKU"/>
      <point x="76" y="-50" type="curve" name="QDRQPPCW"/>
      <point x="118" y="111" name="JSLTSIBS"/>
      <point x="174" y="236" name="ULVVSWAJ"/>
      <point x="240" y="315" type="curve" name="QJACVFCK"/>
      <point x="223" y="239" name="FLVUDGYX"/>
      <point x="219" y="115" name="HSCIPGQF"/>
      <point x="228" y="-50" type="curve" name="BFGKSTMO"/>
      <point x="270" y="-53" name="LSCMYVCQ"/>
      <point x="314" y="-59" name="JZOZYZRU"/>
      <point x="357" y="-67" type="curve" name="FCOEMRTH"/>
      <point x="432" y="218" name="PLNSKFOZ"/>
      <point x="548" y="382" name="EHIIZIQO"/>
      <point x="697" y="414" type="curve" name="AHTQYVGW"/>
      <point x="655" y="421" name="HFLARWOF"/>
      <point x="612" y="427" name="BTKWOGOU"/>
      <point x="571" y="431" type="curve" name="GFAOTYKJ"/>
      <point x="486" y="412" name="MAVBUNUD"/>
      <point x="412" y="353" name="WKTHYIYC"/>
      <point x="351" y="253" type="curve" name="EQYRYGEY"/>
      <point x="360" y="356" name="LDWOGHQB"/>
      <point x="383" y="417" name="WLOEGLMT"/>
      <point x="419" y="431" type="curve" name="XLOSKXTJ"/>
      <point x="378" y="428" name="XANZICMP"/>
      <point x="338" y="422" name="AFIDNMJJ"/>
      <point x="299" y="414" type="curve" name="SAZRIQWH"/>
      <point x="150" y="382" name="BJLYKYHO"/>
      <point x="34" y="218" name="HBPFETEB"/>
    </contour>
  </outline>
</glyph>
<glyph name="U" format="2">
  <advance width="475"/>
  <unicode hex="0055"/>
  <outline>
    <contour>
      <point x="451" y="208" type="curve" name="UIGHWCWX"/>
      <point x="516" y="323" name="SOCBKDQP"/>
      <point x="597" y="393" name="ZNJFGSNK"/>
      <point x="690" y="412" type="curve" name="OXPLJVWZ"/>
      <point x="646" y="421" name="CWOLYFHI"/>
      <point x="603" y="426" name="YCRFFCUK"/>
      <point x="561" y="430" type="curve" name="BSNVRCQU"/>
      <point x="470" y="410" name="JOSXRODP"/>
      <point x="390" y="344" name="CVDMBBAO"/>
      <point x="326" y="232" type="curve" smooth="yes" name="HWUZLNKJ"/>
      <point x="292" y="173" name="MGUFWDWO"/>
      <point x="241" y="125" name="DODFTLYC"/>
      <point x="197" y="125" type="curve" smooth="yes" name="GPFYEMXX"/>
      <point x="153" y="125" name="FJHASJOF"/>
      <point x="142" y="173" name="KWUDXPCH"/>
      <point x="175" y="232" type="curve" smooth="yes" name="ALMVOWDH"/>
      <point x="239" y="344" name="VHJSIGYP"/>
      <point x="319" y="410" name="GFASUHBN"/>
      <point x="410" y="430" type="curve" name="REOEVKYN"/>
      <point x="370" y="426" name="ZUPGWWBB"/>
      <point x="330" y="421" name="SSPQXHVR"/>
      <point x="291" y="412" type="curve" name="FDHBTJCF"/>
      <point x="198" y="392" name="NLAULCIJ"/>
      <point x="117" y="322" name="WIKFBKDS"/>
      <point x="52" y="207" type="curve" smooth="yes" name="SZBIKCBB"/>
      <point x="-26" y="68" name="GPKTGGRY"/>
      <point x="21" y="-60" name="JQRVWUHJ"/>
      <point x="135" y="-59" type="curve" smooth="yes" name="AATCKRXI"/>
      <point x="249" y="-59" name="GDGZQEQA"/>
      <point x="373" y="70" name="KTOHWVRC"/>
      <point x="451" y="208" type="curve" name="MSJBTERL"/>
      <point x="451" y="208" name="NPAPDWJJ"/>
      <point x="451" y="208" name="IMOUPKXX"/>
    </contour>
  </outline>
</glyph>
<glyph name="X" format="2">
  <advance width="466"/>
  <unicode hex="0058"/>
  <outline>
    <contour>
      <point x="269" y="414" type="curve" name="UXTYUNSN"/>
      <point x="240" y="407" name="RKCNYTMH"/>
      <point x="219" y="366" name="YUPXXORQ"/>
      <point x="209" y="294" type="curve" name="OSXKEZIC"/>
      <point x="103" y="211" name="IAVNOVYA"/>
      <point x="5" y="88" name="JHYZEYKI"/>
      <point x="-80" y="-69" type="curve" name="CGCSAGBD"/>
      <point x="-37" y="-59" name="CIWJGUCM"/>
      <point x="8" y="-53" name="EFYOVNKV"/>
      <point x="52" y="-49" type="curve" name="YSKCLJQL"/>
      <point x="104" y="42" name="LOYRGQUI"/>
      <point x="161" y="122" name="MRMZESQQ"/>
      <point x="221" y="187" type="curve" name="WWZSWSNA"/>
      <point x="219" y="122" name="EYXXONOL"/>
      <point x="221" y="42" name="AHMUHDWG"/>
      <point x="227" y="-49" type="curve" name="VYFIYFMA"/>
      <point x="274" y="-53" name="TTWBENUX"/>
      <point x="323" y="-59" name="HXHDIHUV"/>
      <point x="372" y="-69" type="curve" name="BVMCKLOC"/>
      <point x="360" y="88" name="SWYDPUVC"/>
      <point x="358" y="213" name="ICUYOSOG"/>
      <point x="367" y="296" type="curve" name="GEHVVDAW"/>
      <point x="469" y="367" name="MTMAHDFK"/>
      <point x="584" y="407" name="EZPSQTIA"/>
      <point x="704" y="414" type="curve" name="BPIOECAV"/>
      <point x="656" y="422" name="DOHPPAKC"/>
      <point x="608" y="429" name="SUXTVVMA"/>
      <point x="562" y="432" type="curve" name="OOZMSNXC"/>
      <point x="493" y="425" name="RLGSMMUF"/>
      <point x="425" y="407" name="WBOKYIEB"/>
      <point x="363" y="377" type="curve" name="TVDBJYAR"/>
      <point x="373" y="406" name="ANSEOJUB"/>
      <point x="387" y="425" name="MWZQFRJJ"/>
      <point x="403" y="432" type="curve" name="JUBILFQV"/>
      <point x="358" y="429" name="KTJCVHDH"/>
      <point x="312" y="423" name="NHAQMIPB"/>
    </contour>
  </outline>
</glyph>
<glyph name="Z" format="2">
  <advance width="413"/>
  <unicode hex="005A"/>
  <outline>
    <contour>
      <point x="-53" y="-66" type="curve" name="KEIJZQBM"/>
      <point x="54" y="-43" name="KVJJPDWE"/>
      <point x="170" y="-43" name="DUQXEVIA"/>
      <point x="290" y="-66" type="curve" name="FBHEFION"/>
      <point x="307" y="-1" name="LXHYFDLG"/>
      <point x="327" y="59" name="BHZIRUOO"/>
      <point x="347" y="110" type="curve" name="YHZLCTBD"/>
      <point x="279" y="123" name="PESRBLMW"/>
      <point x="209" y="129" name="YKEQJOKF"/>
      <point x="145" y="127" type="curve" name="BPCIKRVW"/>
      <point x="259" y="254" name="FXNYUUBP"/>
      <point x="392" y="337" name="JQSHHPMC"/>
      <point x="533" y="373" type="curve" name="MGRADZPB"/>
      <point x="564" y="394" name="BOQRIJIQ"/>
      <point x="596" y="408" name="GGZFWLYJ"/>
      <point x="630" y="415" type="curve" name="SDUKXMSW"/>
      <point x="510" y="438" name="SLENFYAP"/>
      <point x="394" y="438" name="PJFTZHRU"/>
      <point x="287" y="415" type="curve" name="UFIEEMCM"/>
      <point x="253" y="408" name="HJXBPESF"/>
      <point x="221" y="394" name="UOCVBKAO"/>
      <point x="191" y="373" type="curve" name="UOHCLYSN"/>
      <point x="252" y="386" name="BXBDZHWQ"/>
      <point x="318" y="392" name="NORWPOQY"/>
      <point x="384" y="390" type="curve" name="DHWBFQLS"/>
      <point x="245" y="343" name="ALHRMKXG"/>
      <point x="116" y="248" name="SFEUYXQB"/>
      <point x="5" y="110" type="curve" name="HGVYCXVN"/>
      <point x="-16" y="59" name="XVDBVDMU"/>
      <point x="-36" y="-1" name="HCPEXEDQ"/>
    </contour>
  </outline>
</glyph>
<glyph name="bracketleft" format="2">
  <advance width="315"/>
  <unicode hex="005B"/>
  <outline>
    <contour>
      <point x="-110" y="-194" type="curve" name="HEHCWJZH"/>
      <point x="-38" y="-178" name="AUVEMZUR"/>
      <point x="41" y="-178" name="AKZWOXBK"/>
      <point x="123" y="-194" type="curve" name="GGZBOWBX"/>
      <point x="139" y="-133" name="ULGAVJHH"/>
      <point x="157" y="-75" name="RWGEHFFZ"/>
      <point x="175" y="-22" type="curve" name="ZZYTQRFH"/>
      <point x="135" y="-15" name="EEMPTALZ"/>
      <point x="93" y="-11" name="PRWQDEUO"/>
      <point x="55" y="-11" type="curve" name="RXAJCXZM"/>
      <point x="137" y="221" name="FSLWZQRP"/>
      <point x="246" y="376" name="TKELRGSS"/>
      <point x="375" y="442" type="curve" name="FMQYZHAU"/>
      <point x="413" y="442" name="XKFSGKQB"/>
      <point x="455" y="438" name="HZUWNJFK"/>
      <point x="495" y="431" type="curve" name="OSTCKUQS"/>
      <point x="525" y="446" name="YIHYGWMA"/>
      <point x="556" y="457" name="AMDYOCUV"/>
      <point x="588" y="464" type="curve" name="JFMCIEOL"/>
      <point x="506" y="479" name="NXEBBHCZ"/>
      <point x="427" y="479" name="MENLSWPU"/>
      <point x="355" y="464" type="curve" name="NXVHDFKM"/>
      <point x="150" y="421" name="IMAAIKBD"/>
      <point x="-8" y="197" name="JTULOFKD"/>
    </contour>
  </outline>
</glyph>
<glyph name="backslash" format="2">
  <advance width="346"/>
  <unicode hex="005C"/>
  <outline>
    <contour>
      <point x="180" y="-196" type="curve" name="QXIWTKHO"/>
      <point x="208" y="209" name="XYXPOLDW"/>
      <point x="293" y="437" name="TRGPZGBD"/>
      <point x="428" y="477" type="curve" name="PJTBOMCC"/>
      <point x="391" y="475" name="SPNQKQAQ"/>
      <point x="352" y="469" name="GSGRLACX"/>
      <point x="316" y="462" type="curve" name="BEKEQUNS"/>
      <point x="178" y="432" name="URNGRPJI"/>
      <point x="90" y="214" name="ZNZOLOUT"/>
      <point x="59" y="-181" type="curve" name="PHPQQOEG"/>
      <point x="98" y="-183" name="KUJNIPET"/>
      <point x="140" y="-189" name="TSVTAHGV"/>
    </contour>
  </outline>
</glyph>
<glyph name="underscore" format="2">
  <advance width="435"/>
  <unicode hex="005F"/>
  <outline>
    <contour>
      <point x="-179" y="-141" type="curve" name="DQQFDAPL"/>
      <point x="-42" y="-112" name="LYFAIGBU"/>
      <point x="109" y="-112" name="NHKFPRIC"/>
      <point x="263" y="-141" type="curve" name="ZVKYOTNZ"/>
      <point x="280" y="-76" name="GOILXJEA"/>
      <point x="307" y="-38" name="ACLLUJCH"/>
      <point x="340" y="-31" type="curve" name="UKKLHCFG"/>
      <point x="186" y="-2" name="PYNAJVLZ"/>
      <point x="36" y="-2" name="SHOOALFG"/>
      <point x="-101" y="-31" type="curve" name="LFPMPNXC"/>
      <point x="-135" y="-38" name="NIUNNBSG"/>
      <point x="-162" y="-76" name="OUSEFUQR"/>
    </contour>
  </outline>
</glyph>
<glyph name="grave" format="2">
  <advance width="288"/>
  <unicode hex="0060"/>
  <anchor x="-60.0" y="517" name="top"/>
  <anchor x="194.0" y="517" name="center"/>
  <outline>
    <contour>
      <point x="432" y="385" type="curve" name="QKLOQYYS"/>
      <point x="427" y="473" name="EKMJABDY"/>
      <point x="433" y="523" name="ONUFSLSF"/>
      <point x="450" y="533" type="curve" name="QPUOPUTP"/>
      <point x="408" y="535" name="WVCSZZSQ"/>
      <point x="366" y="532" name="STXECLNL"/>
      <point x="326" y="524" type="curve" name="ZSEZFOQR"/>
      <point x="312" y="520" name="WZKTZVJM"/>
      <point x="311" y="477" name="KDAEIIAP"/>
      <point x="320" y="395" type="curve" name="EJOKDFUQ"/>
      <point x="356" y="396" name="YQSBGQFD"/>
      <point x="394" y="392" name="DBAEONDD"/>
    </contour>
  </outline>
</glyph>
<glyph name="a" format="2">
  <advance width="438"/>
  <unicode hex="0061"/>
  <anchor x="230.0" y="517" name="center"/>
  <outline>
    <contour>
      <point x="185" y="-33" type="curve" name="RFRXNLNQ"/>
      <point x="224" y="-36" name="GTCPDWWO"/>
      <point x="266" y="-42" name="GBLDHZPB"/>
      <point x="307" y="-49" type="curve" name="ECYLTZEZ"/>
      <point x="365" y="163" name="GYKEAPGH"/>
      <point x="453" y="287" name="FRGHFBOW"/>
      <point x="565" y="316" type="curve" name="TMKYTYTK"/>
      <point x="525" y="324" name="QZNRRCRN"/>
      <point x="483" y="330" name="RHZAESPM"/>
      <point x="444" y="332" type="curve" name="XGXLDBRK"/>
      <point x="437" y="330" name="CKCHAAYH"/>
      <point x="431" y="329" name="AQNYWRRE"/>
      <point x="425" y="327" type="curve" name="MDVSLRME"/>
      <point x="418" y="335" name="ORPLKRUJ"/>
      <point x="398" y="338" name="FZAHFCZL"/>
      <point x="364" y="337" type="curve" smooth="yes" name="ASLMTSOL"/>
      <point x="270" y="336" name="QSBUMJRT"/>
      <point x="118" y="319" name="NLDEYMQA"/>
      <point x="36" y="203" type="curve" smooth="yes" name="PUECHEZL"/>
      <point x="-45" y="88" name="JKYHXMJY"/>
      <point x="-3" y="-49" name="MLZQSXOD"/>
      <point x="92" y="-48" type="curve" smooth="yes" name="BKBQXWTA"/>
      <point x="126" y="-47" name="QIRDJZFV"/>
      <point x="162" y="-28" name="PBDENUZF"/>
      <point x="196" y="3" type="curve" name="EKDGAGNW"/>
      <point x="192" y="-8" name="ATDDYBVN"/>
      <point x="189" y="-21" name="HKCCHHRH"/>
    </contour>
    <contour>
      <point x="163" y="116" type="curve" name="EIUOTKTY"/>
      <point x="117" y="116" name="UOPLGIMD"/>
      <point x="109" y="165" name="OHSPEYJW"/>
      <point x="147" y="219" type="curve" smooth="yes" name="YZOQGJPX"/>
      <point x="186" y="274" name="HYFCPYLD"/>
      <point x="243" y="295" name="CUMDJYIW"/>
      <point x="289" y="295" type="curve" smooth="yes" name="RDHNIDNU"/>
      <point x="335" y="295" name="FPXOSMZC"/>
      <point x="335" y="273" name="KDUDCOLX"/>
      <point x="297" y="219" type="curve" smooth="yes" name="ARPSVJOP"/>
      <point x="259" y="166" name="SRUPOXTI"/>
      <point x="208" y="116" name="FBFALOQM"/>
      <point x="163" y="116" type="curve" name="WNJTCGEG"/>
      <point x="163" y="116" name="XKLSCOID"/>
      <point x="163" y="116" name="BWJTQHGS"/>
    </contour>
  </outline>
</glyph>
<glyph name="c" format="2">
  <advance width="336"/>
  <unicode hex="0063"/>
  <anchor x="208.0" y="517" name="center"/>
  <outline>
    <contour>
      <point x="35" y="205" type="curve" name="EPQFVJIZ"/>
      <point x="-66" y="62" name="WAAHPQRF"/>
      <point x="23" y="-90" name="BMXNVCCD"/>
      <point x="212" y="-39" type="curve" name="FOMLLZOJ"/>
      <point x="230" y="24" name="IABOODES"/>
      <point x="250" y="80" name="MMQBQQYL"/>
      <point x="273" y="127" type="curve" name="RTGNZYVD"/>
      <point x="162" y="93" name="UXOYTINX"/>
      <point x="90" y="134" name="FKGNLWRW"/>
      <point x="150" y="219" type="curve" smooth="yes" name="HIYOKGOK"/>
      <point x="210" y="303" name="MSUHOPNA"/>
      <point x="314" y="308" name="MINOEOIV"/>
      <point x="370" y="264" type="curve" name="JCBWDAYF"/>
      <point x="398" y="290" name="HVGHDQKB"/>
      <point x="430" y="307" name="IJTBXVWZ"/>
      <point x="463" y="316" type="curve" name="HHFPJXMX"/>
      <point x="341" y="360" name="EUTLPUUF"/>
      <point x="136" y="348" name="ISIMHXKG"/>
      <point x="35" y="205" type="curve" name="UHBWIUNB"/>
      <point x="35" y="205" name="YOYQPWZN"/>
      <point x="35" y="205" name="GIFNJQZQ"/>
    </contour>
  </outline>
</glyph>
<glyph name="m" format="2">
  <advance width="613"/>
  <unicode hex="006D"/>
  <outline>
    <contour>
      <point x="-51" y="-60" type="curve" name="QIIQZMQE"/>
      <point x="-15" y="-52" name="SAHFRVMM"/>
      <point x="24" y="-46" name="PYXSTICK"/>
      <point x="61" y="-42" type="curve" name="KPPJHXVD"/>
      <point x="94" y="86" name="FDFBYLSC"/>
      <point x="139" y="184" name="NICGLDJW"/>
      <point x="191" y="247" type="curve" smooth="yes" name="PCHMUDKD"/>
      <point x="216" y="277" name="NOYWAQYA"/>
      <point x="251" y="291" name="VYCPCKTZ"/>
      <point x="281" y="294" type="curve" smooth="yes" name="CHQWFBUB"/>
      <point x="313" y="296" name="RACIMBQB"/>
      <point x="308" y="282" name="BVPDOQPP"/>
      <point x="285" y="254" type="curve" smooth="yes" name="JJAAORWI"/>
      <point x="232" y="192" name="DPJTPADH"/>
      <point x="187" y="93" name="QBTVZGHE"/>
      <point x="154" y="-35" type="curve" name="VFNRGETV"/>
      <point x="192" y="-32" name="LZQJUSIJ"/>
      <point x="232" y="-32" name="MILOIOLD"/>
      <point x="271" y="-35" type="curve" name="PFWDODGU"/>
      <point x="304" y="93" name="CYDOXGPE"/>
      <point x="349" y="192" name="BTHBOPZJ"/>
      <point x="401" y="254" type="curve" smooth="yes" name="SHYIULXC"/>
      <point x="426" y="284" name="POMHNKDX"/>
      <point x="462" y="296" name="AYGTJCFS"/>
      <point x="494" y="294" type="curve" smooth="yes" name="DFYQQPWK"/>
      <point x="526" y="291" name="JABAQQUD"/>
      <point x="522" y="274" name="CYYYOILY"/>
      <point x="499" y="247" type="curve" smooth="yes" name="YQKKSKPH"/>
      <point x="446" y="184" name="FGXZASOC"/>
      <point x="402" y="86" name="CULWGNSH"/>
      <point x="368" y="-42" type="curve" name="CXOHMTCB"/>
      <point x="408" y="-46" name="DQBGZYJQ"/>
      <point x="450" y="-52" name="LESQXVWF"/>
      <point x="490" y="-60" type="curve" name="QDHFWXHJ"/>
      <point x="526" y="76" name="YXWWOQOY"/>
      <point x="574" y="178" name="FOJCROQJ"/>
      <point x="631" y="240" type="curve" smooth="yes" name="DQQITIJA"/>
      <point x="701" y="315" name="CRWXUKDM"/>
      <point x="697" y="328" name="ZOHIJWDQ"/>
      <point x="609" y="336" type="curve" smooth="yes" name="JMUMYQCT"/>
      <point x="567" y="340" name="RIWJLNOI"/>
      <point x="515" y="340" name="CKKODUEG"/>
      <point x="465" y="332" type="curve" name="THEDEGFX"/>
      <point x="464" y="341" name="UKPFGSXT"/>
      <point x="446" y="342" name="DCLDMIFY"/>
      <point x="412" y="341" type="curve" smooth="yes" name="WRPAVJYS"/>
      <point x="380" y="339" name="HOJJRHNV"/>
      <point x="340" y="335" name="FHBWFARE"/>
      <point x="300" y="326" type="curve" name="UEPOCJSO"/>
      <point x="306" y="328" name="OLLDIVNY"/>
      <point x="311" y="330" name="AUSUPHFO"/>
      <point x="317" y="332" type="curve" name="QNSWTPMQ"/>
      <point x="280" y="327" name="DRORFZBK"/>
      <point x="242" y="321" name="MIWHJAHH"/>
      <point x="206" y="313" type="curve" name="HSHKTNZS"/>
      <point x="93" y="284" name="ISVSXDEB"/>
      <point x="7" y="158" name="MBVPOLTA"/>
    </contour>
  </outline>
</glyph>
<glyph name="p" format="2">
  <advance width="438"/>
  <unicode hex="0070"/>
  <outline>
    <contour>
      <point x="-17" y="-164" type="curve" name="KOFBMFRE"/>
      <point x="4" y="-84" name="PPTNJZTW"/>
      <point x="29" y="-13" name="KWQMRVHT"/>
      <point x="55" y="48" type="curve" name="LRQKMWVG"/>
      <point x="66" y="23" name="TYUAEALL"/>
      <point x="90" y="7" name="PFHDKEQV"/>
      <point x="124" y="7" type="curve" smooth="yes" name="KXYXWLML"/>
      <point x="220" y="6" name="SSMAFGNX"/>
      <point x="348" y="115" name="YZYPJWBZ"/>
      <point x="434" y="209" type="curve" smooth="yes" name="KKYVKZUT"/>
      <point x="520" y="305" name="FWLAAWBX"/>
      <point x="512" y="325" name="HTYQATRU"/>
      <point x="416" y="327" type="curve" smooth="yes" name="YXPQPGPJ"/>
      <point x="382" y="327" name="UGBHNUXY"/>
      <point x="341" y="325" name="ZJWHZXNE"/>
      <point x="301" y="317" type="curve" name="SNLSHAFU"/>
      <point x="307" y="318" name="ASPYYMXQ"/>
      <point x="313" y="320" name="ZNENBISP"/>
      <point x="319" y="322" type="curve" name="MILTSUYL"/>
      <point x="282" y="320" name="STEJWZOF"/>
      <point x="243" y="314" name="ZNSDDEQV"/>
      <point x="207" y="306" type="curve" name="WGGHADAN"/>
      <point x="61" y="269" name="ECNNYBNY"/>
      <point x="-54" y="103" name="COAMFECF"/>
      <point x="-129" y="-180" type="curve" name="QIYINVQG"/>
      <point x="-93" y="-172" name="BPASOAKB"/>
      <point x="-54" y="-167" name="TSYAPEUO"/>
    </contour>
    <contour>
      <point x="173" y="141" type="curve" name="ITHOTRLS"/>
      <point x="127" y="141" name="TJEFMKIX"/>
      <point x="122" y="180" name="ZELGJFIK"/>
      <point x="163" y="225" type="curve" smooth="yes" name="HRGSLLPU"/>
      <point x="203" y="270" name="UYDDBKUV"/>
      <point x="263" y="289" name="SMKCDKYR"/>
      <point x="308" y="289" type="curve" smooth="yes" name="FAKTFYLX"/>
      <point x="354" y="289" name="WKRAGDPH"/>
      <point x="354" y="271" name="IWWJOMWH"/>
      <point x="312" y="226" type="curve" smooth="yes" name="OTUHZDET"/>
      <point x="271" y="180" name="LIIDGXXV"/>
      <point x="218" y="141" name="MNMQQVCK"/>
      <point x="173" y="141" type="curve" name="QCNMAZWL"/>
      <point x="173" y="141" name="YVFSKCEV"/>
      <point x="173" y="141" name="ORXCOEWQ"/>
    </contour>
  </outline>
</glyph>
<glyph name="t" format="2">
  <advance width="277"/>
  <unicode hex="0074"/>
  <outline>
    <contour>
      <point x="-15" y="-53" type="curve" name="DNFLIAJZ"/>
      <point x="22" y="-49" name="NMYIVIVK"/>
      <point x="62" y="-49" name="JGEDBOKO"/>
      <point x="101" y="-52" type="curve" name="RIUAPESH"/>
      <point x="142" y="103" name="VKQXFPIH"/>
      <point x="196" y="223" name="STTARAQO"/>
      <point x="259" y="300" type="curve" name="NYWHBCYO"/>
      <point x="282" y="298" name="ODVWKBSN"/>
      <point x="305" y="295" name="PZCNSMDX"/>
      <point x="328" y="291" type="curve" name="EGNGHIDL"/>
      <point x="354" y="322" name="ROVYRWED"/>
      <point x="382" y="347" name="RODMORGJ"/>
      <point x="411" y="366" type="curve" name="PWGROJQF"/>
      <point x="388" y="370" name="SXTVDIAR"/>
      <point x="364" y="373" name="WWHSTGID"/>
      <point x="342" y="376" type="curve" name="RBWUEOPT"/>
      <point x="369" y="392" name="NLCZATWS"/>
      <point x="398" y="405" name="KXZCUXWQ"/>
      <point x="429" y="412" type="curve" name="CIZJGVYW"/>
      <point x="390" y="414" name="CLPLOHES"/>
      <point x="350" y="414" name="ISZYSUGD"/>
      <point x="313" y="410" type="curve" name="SRMMJMPX"/>
      <point x="282" y="404" name="XNFCGUGS"/>
      <point x="253" y="392" name="TBHPHBIE"/>
      <point x="225" y="375" type="curve" name="AKAVYUJA"/>
      <point x="207" y="373" name="VHMMCOAG"/>
      <point x="189" y="370" name="PPQENDCV"/>
      <point x="171" y="366" type="curve" name="UZWKHFHH"/>
      <point x="141" y="347" name="CENPBZJJ"/>
      <point x="114" y="322" name="NKPHFYRB"/>
      <point x="88" y="291" type="curve" name="HQSYTWET"/>
      <point x="106" y="294" name="XZIRMDHM"/>
      <point x="124" y="297" name="UQLQJDIT"/>
      <point x="143" y="299" type="curve" name="QNHMDPBX"/>
      <point x="79" y="221" name="TDPIWMFI"/>
      <point x="26" y="103" name="SALRIJSX"/>
    </contour>
  </outline>
</glyph>
<glyph name="x" format="2">
  <advance width="382"/>
  <unicode hex="0078"/>
  <outline>
    <contour>
      <point x="177" y="311" type="curve" name="YKTDXTZQ"/>
      <point x="156" y="307" name="XHTZXRJX"/>
      <point x="142" y="276" name="BFZMINBT"/>
      <point x="136" y="221" type="curve" name="IECWMLSP"/>
      <point x="55" y="158" name="WQZFSXLX"/>
      <point x="-21" y="63" name="ZXZLYZEV"/>
      <point x="-87" y="-55" type="curve" name="JLUGSDDS"/>
      <point x="-47" y="-47" name="DYTCRJZY"/>
      <point x="-5" y="-41" name="FFDNXBKT"/>
      <point x="36" y="-38" type="curve" name="GNBZDYRV"/>
      <point x="70" y="20" name="UVHUXIJS"/>
      <point x="108" y="74" name="OJOWEUYJ"/>
      <point x="146" y="117" type="curve" name="TJRVXFDA"/>
      <point x="147" y="74" name="ODUNEFYF"/>
      <point x="148" y="20" name="UTBGQWQD"/>
      <point x="152" y="-38" type="curve" name="XDTZARFL"/>
      <point x="196" y="-41" name="JVLTHOCM"/>
      <point x="242" y="-47" name="TWOUBOMX"/>
      <point x="287" y="-55" type="curve" name="JCWBITCC"/>
      <point x="277" y="66" name="MZJUXHSI"/>
      <point x="274" y="161" name="IRFCFLHR"/>
      <point x="280" y="225" type="curve" name="YEXIGYYJ"/>
      <point x="359" y="278" name="XKGWBLUA"/>
      <point x="448" y="307" name="SAKRJEIK"/>
      <point x="541" y="311" type="curve" name="OPGOCFEI"/>
      <point x="497" y="320" name="DVKCYUDW"/>
      <point x="451" y="325" name="ILTRWDGM"/>
      <point x="408" y="327" type="curve" name="GZHOYSPQ"/>
      <point x="364" y="322" name="XIVDLUYR"/>
      <point x="319" y="312" name="HPWUMWWL"/>
      <point x="278" y="296" type="curve" name="RXULEPKC"/>
      <point x="284" y="313" name="OZMLKFWN"/>
      <point x="292" y="323" name="LXDVIPCF"/>
      <point x="302" y="327" type="curve" name="XQHLXJIA"/>
      <point x="259" y="325" name="VCAJHNZM"/>
      <point x="217" y="320" name="ZCYSMKJX"/>
    </contour>
  </outline>
</glyph>
<glyph name="braceright" format="2">
  <advance width="325"/>
  <unicode hex="007D"/>
  <outline>
    <contour>
      <point x="101" y="208" type="curve" name="IHHTQEIG"/>
      <point x="65" y="146" name="ZAKWAVKJ"/>
      <point x="65" y="83" name="JMCADZNA"/>
      <point x="46" y="33" type="curve" smooth="yes" name="FLZUUFSL"/>
      <point x="27" y="-18" name="YXTEHTZM"/>
      <point x="-16" y="-40" name="XIXLIPNX"/>
      <point x="-83" y="-18" type="curve" name="JHYJFBAI"/>
      <point x="-102" y="-70" name="MFUGYKAC"/>
      <point x="-120" y="-129" name="OXWJIRGN"/>
      <point x="-136" y="-189" type="curve" name="OBXPMWON"/>
      <point x="-20" y="-215" name="PTXNURGQ"/>
      <point x="98" y="-148" name="MZNKNAKM"/>
      <point x="155" y="4" type="curve" smooth="yes" name="MMGEDDGQ"/>
      <point x="193" y="108" name="WBYZEEDN"/>
      <point x="196" y="168" name="FRLTMKYD"/>
      <point x="218" y="205" type="curve" smooth="yes" name="ZFVJZZVT"/>
      <point x="227" y="221" name="MZAHLQLJ"/>
      <point x="239" y="227" name="WAZZFCSL"/>
      <point x="254" y="225" type="curve" smooth="yes" name="RWZWKXZN"/>
      <point x="268" y="223" name="TQXMNUNO"/>
      <point x="282" y="221" name="ZFDKMBJA"/>
      <point x="295" y="218" type="curve" name="ZCPFFLXK"/>
      <point x="317" y="253" name="RDXIHOLT"/>
      <point x="339" y="285" name="UIKINDIW"/>
      <point x="363" y="313" type="curve" name="JVSIMONC"/>
      <point x="349" y="316" name="BFFCWMGA"/>
      <point x="335" y="318" name="GFBQMJCT"/>
      <point x="322" y="320" type="curve" smooth="yes" name="HZLXPLPT"/>
      <point x="306" y="322" name="IMXHKYOX"/>
      <point x="303" y="329" name="ZBCUBGAY"/>
      <point x="313" y="340" type="curve" smooth="yes" name="BOTYBUGB"/>
      <point x="338" y="368" name="XMHDBYJL"/>
      <point x="401" y="401" name="ZDJECZLB"/>
      <point x="459" y="435" type="curve" smooth="yes" name="AXGOWXZC"/>
      <point x="546" y="485" name="IIGDYIXO"/>
      <point x="489" y="504" name="JBVLVPDB"/>
      <point x="329" y="470" type="curve" name="MKPUBLBG"/>
      <point x="297" y="462" name="PRUAHHEX"/>
      <point x="266" y="450" name="YCRREUVT"/>
      <point x="236" y="434" type="curve" name="MBLHODHD"/>
      <point x="339" y="463" name="ZXHCLECV"/>
      <point x="359" y="453" name="SBYZMNTV"/>
      <point x="331" y="435" type="curve" smooth="yes" name="GEOBJAAJ"/>
      <point x="302" y="417" name="SKEEHTRD"/>
      <point x="237" y="388" name="RWXVOWLA"/>
      <point x="196" y="343" type="curve" smooth="yes" name="YLMITKTS"/>
      <point x="175" y="319" name="FFTYJYSJ"/>
      <point x="169" y="296" name="LEKVWGVV"/>
      <point x="190" y="282" type="curve" name="FZTZVFCW"/>
      <point x="149" y="268" name="DRWRKQLH"/>
      <point x="120" y="240" name="BDVPPFZC"/>
      <point x="101" y="208" type="curve" name="PIXHMXBP"/>
      <point x="101" y="208" name="VUXOLSLQ"/>
      <point x="101" y="208" name="OCIXITEB"/>
    </contour>
  </outline>
</glyph>
<glyph name="currency" format="2">
  <advance width="456"/>
  <unicode hex="00A4"/>
  <outline>
    <contour>
      <point x="13" y="-26" type="curve" name="XOUPFJZW"/>
      <point x="43" y="13" name="TCCSANFI"/>
      <point x="75" y="53" name="LSEDKHKK"/>
      <point x="107" y="86" type="curve" name="MHPXRGSD"/>
      <point x="124" y="72" name="JROHAIYX"/>
      <point x="146" y="64" name="BCYRBUTU"/>
      <point x="173" y="64" type="curve" smooth="yes" name="QVMYZRFE"/>
      <point x="202" y="64" name="OJWJNKYD"/>
      <point x="231" y="72" name="ISYQMZAF"/>
      <point x="260" y="88" type="curve" name="ZJBWOTSP"/>
      <point x="270" y="53" name="LUEPVBGC"/>
      <point x="281" y="15" name="RVOLEYYU"/>
      <point x="293" y="-26" type="curve" name="MZKYDLFK"/>
      <point x="332" y="16" name="OLWCTLIJ"/>
      <point x="374" y="57" name="YYHAGTNV"/>
      <point x="415" y="90" type="curve" name="QCDRVAED"/>
      <point x="404" y="126" name="IFGEPDQK"/>
      <point x="394" y="160" name="YFEVEIZY"/>
      <point x="386" y="190" type="curve" name="DUTKXPCM"/>
      <point x="411" y="217" name="CQMFAAIL"/>
      <point x="434" y="247" name="OEWFQSBD"/>
      <point x="454" y="275" type="curve" smooth="yes" name="GAZKZISY"/>
      <point x="474" y="303" name="YUDSANMC"/>
      <point x="487" y="325" name="ETPROSCL"/>
      <point x="494" y="342" type="curve" name="JDMEJIDO"/>
      <point x="533" y="354" name="OVOEDJNF"/>
      <point x="573" y="364" name="QVXIUOLK"/>
      <point x="613" y="370" type="curve" name="SZVRIVTA"/>
      <point x="608" y="388" name="PMARJJKP"/>
      <point x="604" y="401" name="KRYHUVJA"/>
      <point x="601" y="409" type="curve" name="ISIPABRC"/>
      <point x="559" y="408" name="QBZAQLVY"/>
      <point x="518" y="404" name="EXEXGLOG"/>
      <point x="478" y="396" type="curve" name="YYLFPDBQ"/>
      <point x="464" y="402" name="MEUDYILE"/>
      <point x="443" y="405" name="MSPVKTVH"/>
      <point x="414" y="405" type="curve" smooth="yes" name="BMFODRVE"/>
      <point x="387" y="405" name="MXCTZACU"/>
      <point x="357" y="402" name="RTVSGAZS"/>
      <point x="326" y="396" type="curve" name="QCFOSKYR"/>
      <point x="323" y="403" name="UWSLNJPZ"/>
      <point x="322" y="408" name="XGAOSKBR"/>
      <point x="321" y="409" type="curve" name="LZTSRLOJ"/>
      <point x="273" y="401" name="ZEFUSIEB"/>
      <point x="223" y="388" name="RWHQSGKK"/>
      <point x="177" y="370" type="curve" name="JIPMCPFS"/>
      <point x="179" y="364" name="DFDDAJHS"/>
      <point x="182" y="355" name="AIVWARJH"/>
      <point x="185" y="342" type="curve" name="PTWBZCSB"/>
      <point x="157" y="325" name="BIKZZNHR"/>
      <point x="133" y="303" name="DFDENSBD"/>
      <point x="113" y="275" type="curve" smooth="yes" name="ZKXBLWCD"/>
      <point x="93" y="247" name="MOFTOUZE"/>
      <point x="81" y="217" name="SVOIAWBL"/>
      <point x="77" y="190" type="curve" name="ZTKDYVAS"/>
      <point x="44" y="159" name="PWTEQEIM"/>
      <point x="11" y="127" name="YEOTRHGR"/>
      <point x="-21" y="90" type="curve" name="HAEBMJQF"/>
      <point x="-11" y="57" name="ASUEQZSA"/>
      <point x="1" y="16" name="FLTNSHDX"/>
    </contour>
    <contour>
      <point x="233" y="211" type="curve" name="KZKQZFVD"/>
      <point x="193" y="211" name="WIJNNJAU"/>
      <point x="186" y="245" name="ZFQYIBPB"/>
      <point x="216" y="286" type="curve" smooth="yes" name="PZMQNDZS"/>
      <point x="245" y="328" name="FTELWPFV"/>
      <point x="291" y="348" name="RBHIISEF"/>
      <point x="330" y="348" type="curve" smooth="yes" name="FKKZFPLD"/>
      <point x="370" y="348" name="PYSOVQSB"/>
      <point x="375" y="328" name="GAUCFUIP"/>
      <point x="345" y="286" type="curve" smooth="yes" name="YSZYUTXM"/>
      <point x="316" y="245" name="JKBCHCMM"/>
      <point x="273" y="211" name="FCIXWOSJ"/>
      <point x="233" y="211" type="curve" name="QRWVUWIS"/>
      <point x="233" y="211" name="KZROBUCM"/>
      <point x="233" y="211" name="DXUUFTHC"/>
    </contour>
  </outline>
</glyph>
<glyph name="yen" format="2">
  <advance width="423"/>
  <unicode hex="00A5"/>
  <outline>
    <contour>
      <point x="-18" y="58" type="curve" name="JORMABMS"/>
      <point x="18" y="64" name="AKTPSWHU"/>
      <point x="56" y="69" name="SBMWTIDG"/>
      <point x="93" y="71" type="curve" name="OSSZDLSZ"/>
      <point x="80" y="35" name="AUJBUGOD"/>
      <point x="68" y="-6" name="GGYWJURB"/>
      <point x="57" y="-49" type="curve" name="TZUAZNRC"/>
      <point x="97" y="-46" name="ZPPVOHGV"/>
      <point x="139" y="-46" name="SUZHJACS"/>
      <point x="181" y="-49" type="curve" name="MFSGHXAX"/>
      <point x="191" y="-6" name="RVXMKWKK"/>
      <point x="204" y="35" name="FFGERYZH"/>
      <point x="217" y="71" type="curve" name="ZFZFJQTM"/>
      <point x="255" y="69" name="UCIEEYME"/>
      <point x="296" y="64" name="PVCCVYBR"/>
      <point x="335" y="58" type="curve" name="WAYEEQSO"/>
      <point x="350" y="100" name="ZSUYZSTU"/>
      <point x="366" y="140" name="PCLAJOBO"/>
      <point x="383" y="174" type="curve" name="DAUOXKIV"/>
      <point x="343" y="180" name="CNKCSYCN"/>
      <point x="302" y="185" name="ZMUPXDZW"/>
      <point x="264" y="187" type="curve" name="HZHJLXLH"/>
      <point x="271" y="201" name="ZHAKVGXA"/>
      <point x="277" y="214" name="FXDUXOSF"/>
      <point x="284" y="227" type="curve" name="DKMQAUOK"/>
      <point x="322" y="225" name="BRDFRDSG"/>
      <point x="364" y="220" name="IHAXYKCE"/>
      <point x="403" y="214" type="curve" name="YJLZLLWV"/>
      <point x="420" y="246" name="RHUKGFPQ"/>
      <point x="439" y="274" name="RJNULYAU"/>
      <point x="459" y="299" type="curve" name="YZBRKMEG"/>
      <point x="429" y="304" name="HTKAYRGE"/>
      <point x="399" y="308" name="ENRKEUSP"/>
      <point x="370" y="310" type="curve" name="LPAAZGFL"/>
      <point x="461" y="371" name="MQOQCEOM"/>
      <point x="565" y="407" name="YVKUIQPL"/>
      <point x="672" y="413" type="curve" name="GBQUWWHF"/>
      <point x="626" y="422" name="UTFQDWHV"/>
      <point x="581" y="428" name="EVIMHKZM"/>
      <point x="536" y="431" type="curve" name="TPKKIQMF"/>
      <point x="466" y="424" name="NIJLIEFK"/>
      <point x="397" y="403" name="IUPHXAWU"/>
      <point x="334" y="371" type="curve" name="BBYNWYHF"/>
      <point x="346" y="403" name="LTPYNKQJ"/>
      <point x="363" y="424" name="OMVGJMVS"/>
      <point x="383" y="431" type="curve" name="DLLYEVME"/>
      <point x="341" y="428" name="AAPAKNYG"/>
      <point x="297" y="422" name="HKCWTCGT"/>
      <point x="257" y="413" type="curve" name="TGBMGRZV"/>
      <point x="226" y="407" name="KREDZTYP"/>
      <point x="203" y="371" name="COTOKOIS"/>
      <point x="188" y="310" type="curve" name="YWZNGTBY"/>
      <point x="161" y="308" name="LKYUJHDC"/>
      <point x="133" y="304" name="DLCROESA"/>
      <point x="106" y="299" type="curve" name="GMCYDPKQ"/>
      <point x="87" y="274" name="UPNAJHBW"/>
      <point x="67" y="246" name="JQVMBEUM"/>
      <point x="50" y="214" type="curve" name="RWSKFHRQ"/>
      <point x="86" y="220" name="HKZKEGSC"/>
      <point x="124" y="225" name="LTBOVNNA"/>
      <point x="161" y="227" type="curve" name="SCQQRSUO"/>
      <point x="154" y="215" name="WNFGLSXC"/>
      <point x="147" y="202" name="BNVRVLNZ"/>
      <point x="140" y="187" type="curve" name="SMJGQXKY"/>
      <point x="104" y="185" name="KCUHPUPQ"/>
      <point x="65" y="180" name="APITBWXP"/>
      <point x="30" y="174" type="curve" name="JDROMBYJ"/>
      <point x="13" y="139" name="BMAZYUHG"/>
      <point x="-3" y="100" name="MSXQYRRO"/>
    </contour>
  </outline>
</glyph>
<glyph name="guillemetleft" format="2">
  <advance width="549"/>
  <unicode hex="00AB"/>
  <outline>
    <contour>
      <point x="4" y="132" type="curve" name="SYNYCGBI"/>
      <point x="46" y="91" name="LUQTGXVQ"/>
      <point x="94" y="29" name="MTMMPLFO"/>
      <point x="146" y="-50" type="curve" name="BRTHSQHH"/>
      <point x="167" y="28" name="JLABQWKF"/>
      <point x="192" y="97" name="SIGENDYB"/>
      <point x="219" y="151" type="curve" name="IOMJNGZD"/>
      <point x="194" y="180" name="NCGOAOVL"/>
      <point x="171" y="203" name="AOSHRXCZ"/>
      <point x="149" y="221" type="curve" name="DOKFFNSR"/>
      <point x="202" y="248" name="XIMEZWQG"/>
      <point x="258" y="269" name="GDYZCSMQ"/>
      <point x="314" y="285" type="curve" name="EOGGKNTE"/>
      <point x="347" y="316" name="ZIEKTKLE"/>
      <point x="386" y="337" name="NJMYLAKD"/>
      <point x="426" y="345" type="curve" name="GWEKYAIT"/>
      <point x="310" y="335" name="DEKYSIYY"/>
      <point x="197" y="306" name="UHUECTMA"/>
      <point x="92" y="257" type="curve" name="NTQUCFQO"/>
      <point x="60" y="226" name="TDZAPFPI"/>
      <point x="30" y="183" name="LOKNOOPX"/>
    </contour>
    <contour>
      <point x="258" y="156" type="curve" name="OSGKAGCI"/>
      <point x="305" y="99" name="QKCFIULO"/>
      <point x="358" y="21" name="PKFZGIOZ"/>
      <point x="415" y="-74" type="curve" name="TZHBIBZS"/>
      <point x="435" y="4" name="GWIUEXTH"/>
      <point x="460" y="73" name="KKLYECGF"/>
      <point x="488" y="127" type="curve" name="AZCVMYLG"/>
      <point x="461" y="164" name="OJPJIOVK"/>
      <point x="434" y="195" name="OGSNJIRO"/>
      <point x="410" y="222" type="curve" name="QFWEFQUB"/>
      <point x="466" y="240" name="GBGOJEHW"/>
      <point x="524" y="253" name="LDFSTZVL"/>
      <point x="583" y="261" type="curve" name="ZWGYSRNO"/>
      <point x="616" y="291" name="XREPDJBR"/>
      <point x="655" y="313" name="SGLVDMNS"/>
      <point x="695" y="321" type="curve" name="MIYWWZJU"/>
      <point x="574" y="327" name="ZSXLODIO"/>
      <point x="456" y="313" name="VXGPKYXN"/>
      <point x="347" y="281" type="curve" name="YTXSZTIV"/>
      <point x="315" y="250" name="ZDFBFSMD"/>
      <point x="285" y="207" name="HPLVCVEN"/>
    </contour>
  </outline>
</glyph>
<glyph name="logicalnot" format="2">
  <advance width="360"/>
  <unicode hex="00AC"/>
  <outline>
    <contour>
      <point x="75" y="225" type="curve" name="RLMTCLCA"/>
      <point x="134" y="238" name="ZKWLHIAF"/>
      <point x="198" y="243" name="ECTXGKDD"/>
      <point x="262" y="239" type="curve" name="TCVKFSMG"/>
      <point x="236" y="202" name="YRNOKYNH"/>
      <point x="214" y="151" name="GNJTGJBH"/>
      <point x="197" y="84" type="curve" name="ZWZHWWXK"/>
      <point x="234" y="82" name="BNBYEZFK"/>
      <point x="274" y="77" name="GADVBLYN"/>
      <point x="313" y="70" type="curve" name="HQMXAGMR"/>
      <point x="348" y="201" name="PGVEWBVV"/>
      <point x="401" y="276" name="YUANHNPR"/>
      <point x="469" y="291" type="curve" name="DHNSEKQT"/>
      <point x="363" y="310" name="WMRREARW"/>
      <point x="260" y="310" name="JRVATJXD"/>
      <point x="165" y="291" type="curve" name="CCSHOQGR"/>
      <point x="131" y="284" name="CYJVWVRO"/>
      <point x="100" y="261" name="ATPGGYBJ"/>
    </contour>
  </outline>
</glyph>
<glyph name="registered" format="2">
  <advance width="434"/>
  <unicode hex="00AE"/>
  <outline>
    <contour>
      <point x="213" y="96" type="curve" name="ZJPAOHIL"/>
      <point x="319" y="96" name="UBYBDRLG"/>
      <point x="433" y="226" name="XCEZYLOZ"/>
      <point x="508" y="331" type="curve" smooth="yes" name="RKSISJRH"/>
      <point x="582" y="436" name="KAUYIQEA"/>
      <point x="576" y="459" name="HPCCQFUD"/>
      <point x="470" y="459" type="curve" smooth="yes" name="SSQOLBWQ"/>
      <point x="365" y="459" name="JGQKHYRT"/>
      <point x="219" y="436" name="PIQJXNWD"/>
      <point x="145" y="331" type="curve" smooth="yes" name="NCFUKRXD"/>
      <point x="70" y="226" name="MSEXROUV"/>
      <point x="108" y="96" name="ZMAPPZDK"/>
      <point x="213" y="96" type="curve" name="OYPZDYJW"/>
      <point x="213" y="96" name="KTBDMFHL"/>
      <point x="213" y="96" name="YMWTAKGP"/>
    </contour>
    <contour>
      <point x="232" y="158" type="curve" name="SAGCRDPG"/>
      <point x="148" y="158" name="NNSUHSIK"/>
      <point x="122" y="255" name="NPWOOSKT"/>
      <point x="181" y="338" type="curve" smooth="yes" name="GTIARTID"/>
      <point x="240" y="421" name="RATHLJFM"/>
      <point x="353" y="448" name="BXRMCCUD"/>
      <point x="437" y="448" type="curve" smooth="yes" name="EAUGZHCF"/>
      <point x="520" y="448" name="TKGKFILF"/>
      <point x="526" y="421" name="QHJERAAI"/>
      <point x="467" y="338" type="curve" smooth="yes" name="GIHMRHSB"/>
      <point x="408" y="255" name="XOVXSAXN"/>
      <point x="315" y="158" name="XDKNCWAZ"/>
      <point x="232" y="158" type="curve" name="KHIUXGQN"/>
      <point x="232" y="158" name="GZWPPYNY"/>
      <point x="232" y="158" name="WGDMMZDP"/>
    </contour>
    <contour>
      <point x="196" y="245" type="curve" name="ZRVBVIVI"/>
      <point x="214" y="247" name="GPZWUZVM"/>
      <point x="233" y="248" name="EXEJCZRV"/>
      <point x="251" y="248" type="curve" name="HWCXLEMJ"/>
      <point x="260" y="269" name="EHFZERLS"/>
      <point x="269" y="289" name="GARANICO"/>
      <point x="279" y="306" type="curve" name="NNULKUXU"/>
      <point x="286" y="306" name="DZMYDYHX"/>
      <point x="291" y="306" name="DAJTGGXM"/>
      <point x="298" y="306" type="curve" name="JPZORZRB"/>
      <point x="298" y="306" name="OOCHPJQO"/>
      <point x="298" y="306" name="HWLXQLLE"/>
      <point x="298" y="306" type="curve" name="QARUYPVF"/>
      <point x="298" y="288" name="YDXFZBZJ"/>
      <point x="298" y="268" name="VGBJOLDK"/>
      <point x="298" y="248" type="curve" name="ZITPXKCD"/>
      <point x="319" y="247" name="PHMLERXW"/>
      <point x="341" y="245" name="LONBPHHU"/>
      <point x="362" y="243" type="curve" name="PGMSKNJI"/>
      <point x="360" y="273" name="XNIHKJMW"/>
      <point x="359" y="301" name="AHIYADYP"/>
      <point x="360" y="323" type="curve" name="MYAPFJDG"/>
      <point x="381" y="335" name="ZHHUWGKP"/>
      <point x="401" y="352" name="IDDEKBEB"/>
      <point x="416" y="371" type="curve" smooth="yes" name="LYCAJXVL"/>
      <point x="446" y="406" name="HCITNEYJ"/>
      <point x="438" y="424" name="QIWCPMHW"/>
      <point x="392" y="424" type="curve" smooth="yes" name="XTYNPMDI"/>
      <point x="369" y="424" name="XZHFLAUE"/>
      <point x="345" y="422" name="JMMCOFMU"/>
      <point x="323" y="421" type="curve" name="PZRVULHO"/>
      <point x="275" y="386" name="ZFIIYAUE"/>
      <point x="232" y="326" name="TDMCUMWB"/>
    </contour>
    <contour>
      <point x="355" y="389" type="curve" smooth="yes" name="SBZUZKOV"/>
      <point x="367" y="389" name="CUKCUXOK"/>
      <point x="368" y="383" name="XJOMVBXJ"/>
      <point x="360" y="373" type="curve" smooth="yes" name="VQFMFNEF"/>
      <point x="353" y="364" name="QTQCSZKN"/>
      <point x="339" y="356" name="TJGAQIFA"/>
      <point x="330" y="356" type="curve" smooth="yes" name="PODHIHRL"/>
      <point x="323" y="356" name="EIQOBLIG"/>
      <point x="318" y="356" name="EKGAYYZI"/>
      <point x="311" y="356" type="curve" name="GKOJMUMU"/>
      <point x="320" y="367" name="PSJFDUVV"/>
      <point x="330" y="380" name="EYUWAFJR"/>
      <point x="339" y="389" type="curve" name="SERRKTSE"/>
      <point x="344" y="390" name="PBPYLWLL"/>
      <point x="349" y="390" name="UDIYFGKK"/>
    </contour>
  </outline>
</glyph>
<glyph name="degree" format="2">
  <advance width="376"/>
  <unicode hex="00B0"/>
  <outline>
    <contour>
      <point x="206" y="130" type="curve" name="MRCBOKEV"/>
      <point x="302" y="130" name="NQTHPNCV"/>
      <point x="404" y="248" name="ESIMGYTM"/>
      <point x="472" y="343" type="curve" smooth="yes" name="GTTHKKRO"/>
      <point x="539" y="437" name="BJHZVNZY"/>
      <point x="533" y="457" name="NIPZGBXS"/>
      <point x="437" y="457" type="curve" smooth="yes" name="FQQKRTER"/>
      <point x="342" y="457" name="XFSHWKYI"/>
      <point x="212" y="438" name="YIGIHRCZ"/>
      <point x="145" y="343" type="curve" smooth="yes" name="TRGSYRRT"/>
      <point x="78" y="248" name="XISFLHNX"/>
      <point x="111" y="130" name="GFBCXRBZ"/>
      <point x="206" y="130" type="curve" name="FFCXXUDV"/>
      <point x="206" y="130" name="ZVPFLSNK"/>
      <point x="206" y="130" name="CAFYHTMN"/>
    </contour>
    <contour>
      <point x="258" y="280" type="curve" name="NNBCWWGL"/>
      <point x="218" y="280" name="NIELVVJX"/>
      <point x="211" y="315" name="ALACEIXH"/>
      <point x="240" y="357" type="curve" smooth="yes" name="BVHSXTXS"/>
      <point x="270" y="399" name="KTGYGSKG"/>
      <point x="315" y="417" name="GXCYZJNM"/>
      <point x="355" y="417" type="curve" smooth="yes" name="MDHOGHJK"/>
      <point x="395" y="417" name="LQEDXJEL"/>
      <point x="399" y="398" name="RHPESPAG"/>
      <point x="370" y="356" type="curve" smooth="yes" name="ZWYNFWNZ"/>
      <point x="340" y="315" name="SJQTSIEY"/>
      <point x="297" y="280" name="LKDXZQTV"/>
      <point x="258" y="280" type="curve" name="YNUSJJSB"/>
      <point x="258" y="280" name="QOIFABSB"/>
      <point x="258" y="280" name="WDWSRXOT"/>
    </contour>
  </outline>
</glyph>
<glyph name="mu.math" format="2">
  <advance width="419"/>
  <unicode hex="00B5"/>
  <outline>
    <contour>
      <point x="551" y="300" type="curve" name="PLNRBHVW"/>
      <point x="510" y="308" name="RGZOKVCW"/>
      <point x="469" y="313" name="BZBEOLNS"/>
      <point x="430" y="315" type="curve" name="MNPFRXIF"/>
      <point x="366" y="302" name="IKFSIKVA"/>
      <point x="306" y="263" name="MHKYZKPT"/>
      <point x="256" y="203" type="curve" smooth="yes" name="RNCPLWDJ"/>
      <point x="226" y="167" name="LJLIRDEJ"/>
      <point x="189" y="142" name="KHOYULFA"/>
      <point x="152" y="142" type="curve" smooth="yes" name="ZPAYZYBH"/>
      <point x="114" y="142" name="QWDDXZIJ"/>
      <point x="115" y="169" name="CIPQOYRL"/>
      <point x="142" y="203" type="curve" smooth="yes" name="RFZZCEHD"/>
      <point x="193" y="263" name="DPOYICIH"/>
      <point x="252" y="302" name="AIONHRAV"/>
      <point x="316" y="315" type="curve" name="EVFKEXGZ"/>
      <point x="279" y="313" name="YRPJYRQP"/>
      <point x="240" y="308" name="TOFHSMRG"/>
      <point x="204" y="300" type="curve" name="FWVFFKYT"/>
      <point x="55" y="268" name="CBDLTKVH"/>
      <point x="-60" y="105" name="MJEYEYNG"/>
      <point x="-135" y="-179" type="curve" name="SLGKHBHE"/>
      <point x="-99" y="-171" name="NOOKQSXU"/>
      <point x="-60" y="-166" name="PFNUZMYF"/>
      <point x="-23" y="-163" type="curve" name="NCTHWSWJ"/>
      <point x="-5" y="-96" name="JHZXLADD"/>
      <point x="16" y="-33" name="XPAJDKKN"/>
      <point x="38" y="20" type="curve" name="WTAPUAAI"/>
      <point x="45" y="11" name="TWVWCRTN"/>
      <point x="56" y="6" name="RCOFAFSB"/>
      <point x="73" y="6" type="curve" smooth="yes" name="BCFSQDUR"/>
      <point x="99" y="7" name="IFXPWYLQ"/>
      <point x="129" y="18" name="MFZYWYBI"/>
      <point x="158" y="37" type="curve" name="UDFGQPGB"/>
      <point x="156" y="30" name="BLJFVVOA"/>
      <point x="153" y="25" name="ATMEBLWS"/>
      <point x="151" y="18" type="curve" name="HYCDJXMU"/>
      <point x="190" y="16" name="NMARDQIH"/>
      <point x="232" y="11" name="QVZZQRKX"/>
      <point x="272" y="3" type="curve" name="XQXTRXNF"/>
      <point x="343" y="175" name="CQNDBCXW"/>
      <point x="437" y="276" name="VGQPAPRN"/>
    </contour>
  </outline>
</glyph>
<glyph name="paragraph" format="2">
  <advance width="550"/>
  <unicode hex="00B6"/>
  <outline>
    <contour>
      <point x="245" y="-48" type="curve" name="POHNFLTV"/>
      <point x="303" y="173" name="DYVOHCSQ"/>
      <point x="384" y="321" name="VAMQXABW"/>
      <point x="486" y="390" type="curve" name="BQFOKKHX"/>
      <point x="501" y="390" name="RERLBSTX"/>
      <point x="518" y="388" name="SFRJPLRN"/>
      <point x="533" y="387" type="curve" name="QJOHYPMS"/>
      <point x="432" y="317" name="MOPSCXSU"/>
      <point x="350" y="169" name="YRGLRQVO"/>
      <point x="292" y="-52" type="curve" name="TLYQFPJL"/>
      <point x="331" y="-55" name="KRIKTQQT"/>
      <point x="373" y="-61" name="KBRECPYF"/>
      <point x="414" y="-69" type="curve" name="BVBPSTWE"/>
      <point x="489" y="216" name="CLVWUIZV"/>
      <point x="605" y="380" name="XHWFLNSQ"/>
      <point x="754" y="412" type="curve" name="JQBTZGTV"/>
      <point x="650" y="431" name="YEJIUJSB"/>
      <point x="548" y="439" name="TYGASFHN"/>
      <point x="452" y="434" type="curve" smooth="yes" name="TAFJWVHT"/>
      <point x="345" y="429" name="VECPLYFN"/>
      <point x="215" y="407" name="NLVQHROW"/>
      <point x="140" y="337" type="curve" smooth="yes" name="ULOZTXDX"/>
      <point x="65" y="267" name="AEIJIALB"/>
      <point x="96" y="196" name="HGUJSYED"/>
      <point x="192" y="202" type="curve" smooth="yes" name="BPNJRIIU"/>
      <point x="200" y="202" name="GYSHJTTR"/>
      <point x="209" y="202" name="GKRIEZNG"/>
      <point x="218" y="202" type="curve" name="YZXGCWDI"/>
      <point x="184" y="134" name="FXZNSIMA"/>
      <point x="153" y="51" name="DISNICQE"/>
      <point x="128" y="-46" type="curve" name="KCFECNTC"/>
      <point x="165" y="-44" name="VEERDOYW"/>
      <point x="206" y="-45" name="CINNBUNQ"/>
    </contour>
    <contour>
      <point x="268" y="318" type="curve" smooth="yes" name="EFVDUPAZ"/>
      <point x="239" y="316" name="JILBSVVU"/>
      <point x="235" y="334" name="TFYGWCDP"/>
      <point x="257" y="355" type="curve" smooth="yes" name="GHCBFLYK"/>
      <point x="279" y="376" name="ZIDCXQMY"/>
      <point x="318" y="390" name="YAIOMJBK"/>
      <point x="353" y="392" type="curve" smooth="yes" name="IFHLOQFR"/>
      <point x="359" y="392" name="NRDROCZA"/>
      <point x="364" y="392" name="MLWHJCYR"/>
      <point x="369" y="392" type="curve" name="ERLGSNGY"/>
      <point x="341" y="373" name="XUWTYWXP"/>
      <point x="315" y="349" name="BFRPRJOC"/>
      <point x="291" y="318" type="curve" name="CGEACANI"/>
      <point x="283" y="318" name="UCPAQPWX"/>
      <point x="276" y="318" name="OPMWTSVI"/>
    </contour>
  </outline>
</glyph>
<glyph name="onequarter" format="2">
  <advance width="635"/>
  <unicode hex="00BC"/>
  <outline>
    <contour>
      <point x="435" y="440" type="curve" name="DOJSKCES"/>
      <point x="377" y="433" name="LZQLMLLX"/>
      <point x="320" y="424" name="CEUXHATO"/>
      <point x="264" y="411" type="curve" name="VFLGBKOE"/>
      <point x="240" y="403" name="GYUYLWSQ"/>
      <point x="216" y="392" name="GXGXULAK"/>
      <point x="194" y="378" type="curve" name="DPGWRBOT"/>
      <point x="215" y="383" name="PAQZRGVW"/>
      <point x="236" y="388" name="YXAKIJHO"/>
      <point x="258" y="393" type="curve" name="XDFPYGQJ"/>
      <point x="201" y="359" name="MUAKQLNJ"/>
      <point x="149" y="301" name="WFMSEIGQ"/>
      <point x="105" y="223" type="curve" name="VIFUZIMX"/>
      <point x="136" y="228" name="HSLPYDTV"/>
      <point x="166" y="232" name="JNOODAXC"/>
      <point x="197" y="235" type="curve" name="ZASZMIHQ"/>
      <point x="262" y="350" name="KIYKKIND"/>
      <point x="343" y="420" name="LYCFGOLC"/>
    </contour>
    <contour>
      <point x="21" y="-59" type="curve" name="XOPCJLUO"/>
      <point x="52" y="-54" name="JCPSZFPW"/>
      <point x="83" y="-50" name="SXEQUCUO"/>
      <point x="115" y="-48" type="curve" name="KJLPAOAN"/>
      <point x="281" y="244" name="UDSDXUGU"/>
      <point x="491" y="409" name="KUCKSCVB"/>
      <point x="735" y="434" type="curve" name="LVNSHKKM"/>
      <point x="701" y="438" name="XSXLBILZ"/>
      <point x="668" y="441" name="YCNEAQHN"/>
      <point x="635" y="443" type="curve" name="QCNHEXCK"/>
      <point x="393" y="411" name="MVNWKNSQ"/>
      <point x="184" y="240" name="MSQKBQAR"/>
    </contour>
    <contour>
      <point x="280" y="52" type="curve" name="NCNRGMFX"/>
      <point x="324" y="50" name="UKMLERBP"/>
      <point x="370" y="47" name="CCDBLUOZ"/>
      <point x="415" y="42" type="curve" name="ZQDGELHS"/>
      <point x="406" y="13" name="VORAFVYS"/>
      <point x="396" y="-20" name="ULOLBQDE"/>
      <point x="388" y="-53" type="curve" name="ISSDLVPM"/>
      <point x="418" y="-56" name="VTLRQFKU"/>
      <point x="449" y="-60" name="LMUVTPXI"/>
      <point x="480" y="-66" type="curve" name="RCLFCMBG"/>
      <point x="489" y="-32" name="OEUJTQOH"/>
      <point x="499" y="0" name="MMKNXRST"/>
      <point x="508" y="30" type="curve" name="YEBYONVT"/>
      <point x="522" y="28" name="WSAQIOTY"/>
      <point x="536" y="26" name="VBVRXCTN"/>
      <point x="549" y="23" type="curve" name="WWCCRQDC"/>
      <point x="562" y="63" name="BHPMWNKK"/>
      <point x="577" y="102" name="KJFXZLVD"/>
      <point x="592" y="136" type="curve" name="SORLCRHQ"/>
      <point x="578" y="138" name="MERDLWAD"/>
      <point x="564" y="141" name="FKCGZCEM"/>
      <point x="551" y="143" type="curve" name="WCZVGQLG"/>
      <point x="582" y="214" name="PHDRTKMR"/>
      <point x="618" y="274" name="GITXGXNJ"/>
      <point x="657" y="319" type="curve" name="TVHXOSFT"/>
      <point x="612" y="326" name="ZOWGEYSV"/>
      <point x="566" y="332" name="SYYTJBXJ"/>
      <point x="523" y="335" type="curve" name="HRPUUDRS"/>
      <point x="452" y="293" name="QRANYJGU"/>
      <point x="384" y="236" name="WDIAMFXB"/>
      <point x="323" y="164" type="curve" name="RSWWKKDV"/>
      <point x="308" y="131" name="NATCFVZR"/>
      <point x="293" y="91" name="DIDJZJKA"/>
    </contour>
    <contour>
      <point x="416" y="160" type="curve" name="GVZMVHHL"/>
      <point x="445" y="194" name="SRWCBVCV"/>
      <point x="475" y="224" name="IJUITFUR"/>
      <point x="507" y="250" type="curve" name="EYHOOHZD"/>
      <point x="489" y="222" name="KJPYPDIR"/>
      <point x="473" y="191" name="RSSMMGML"/>
      <point x="458" y="156" type="curve" name="ATXVNDEW"/>
      <point x="444" y="157" name="YJEWFJRG"/>
      <point x="430" y="158" name="DBNXGCWB"/>
    </contour>
  </outline>
</glyph>
<glyph name="onehalf" format="2">
  <advance width="664"/>
  <unicode hex="00BD"/>
  <outline>
    <contour>
      <point x="436" y="439" type="curve" name="JWBZIMKM"/>
      <point x="377" y="433" name="MHGOMMMG"/>
      <point x="320" y="423" name="ZJYOLNYV"/>
      <point x="264" y="410" type="curve" name="DXKYGVRD"/>
      <point x="240" y="402" name="SCKTCSTV"/>
      <point x="216" y="392" name="IFPKSGNA"/>
      <point x="194" y="378" type="curve" name="KVSZIUTT"/>
      <point x="215" y="383" name="PFGAVGLN"/>
      <point x="237" y="388" name="KJFNSRSL"/>
      <point x="258" y="392" type="curve" name="NXBQLOVX"/>
      <point x="201" y="359" name="YNCUEWTW"/>
      <point x="149" y="300" name="DCBNBWAH"/>
      <point x="105" y="222" type="curve" name="YQLEOOAG"/>
      <point x="136" y="227" name="ZHMVICOY"/>
      <point x="166" y="231" name="PQRBGVIF"/>
      <point x="197" y="234" type="curve" name="ZCAHNGRG"/>
      <point x="262" y="349" name="YYSSAKLS"/>
      <point x="343" y="420" name="YHUXXENP"/>
    </contour>
    <contour>
      <point x="21" y="-59" type="curve" name="RCZEKFUV"/>
      <point x="52" y="-54" name="USUMFPPA"/>
      <point x="84" y="-51" name="OCOQJUZO"/>
      <point x="115" y="-48" type="curve" name="PMWFGNGU"/>
      <point x="281" y="244" name="CIJZKHSL"/>
      <point x="491" y="409" name="HZFELLYY"/>
      <point x="734" y="436" type="curve" name="XFQOGAER"/>
      <point x="701" y="439" name="DOVQWKDZ"/>
      <point x="668" y="442" name="FZZPTURG"/>
      <point x="635" y="443" type="curve" name="KVEBWTZM"/>
      <point x="393" y="411" name="ZLJDHKKZ"/>
      <point x="184" y="240" name="DBSBNCYO"/>
    </contour>
    <contour>
      <point x="314" y="-46" type="curve" name="YAVJHSZG"/>
      <point x="386" y="-49" name="IOSMCAAH"/>
      <point x="462" y="-59" name="OAVIEQYQ"/>
      <point x="538" y="-73" type="curve" name="KBQQEYFS"/>
      <point x="550" y="-27" name="RPPFGTPV"/>
      <point x="563" y="18" name="GGABVTJW"/>
      <point x="577" y="57" type="curve" name="EOAEFLUK"/>
      <point x="546" y="64" name="BZOCFCXO"/>
      <point x="513" y="69" name="OUJOMOII"/>
      <point x="482" y="73" type="curve" name="UOXALVAY"/>
      <point x="498" y="84" name="BDMMXVZI"/>
      <point x="513" y="95" name="TPSNHVQV"/>
      <point x="529" y="105" type="curve" smooth="yes" name="AGFZFWQY"/>
      <point x="595" y="150" name="OGZNZPEU"/>
      <point x="634" y="190" name="FVEWXTIZ"/>
      <point x="659" y="230" type="curve" smooth="yes" name="ZFLCIVZG"/>
      <point x="706" y="309" name="ZPMRYCRK"/>
      <point x="653" y="359" name="RQIOZIEB"/>
      <point x="491" y="333" type="curve" name="YKMSAOFI"/>
      <point x="469" y="308" name="VOKLGQZI"/>
      <point x="449" y="279" name="QFIRLEDR"/>
      <point x="430" y="245" type="curve" name="NJFEEUAE"/>
      <point x="517" y="269" name="BKMNKAKA"/>
      <point x="558" y="257" name="FLJDBTIC"/>
      <point x="539" y="222" type="curve" smooth="yes" name="RUCJCPIC"/>
      <point x="530" y="205" name="VDMKCQHY"/>
      <point x="507" y="190" name="VPFJGRBN"/>
      <point x="457" y="158" type="curve" smooth="yes" name="KDSMZCCA"/>
      <point x="423" y="137" name="QPJCJQBJ"/>
      <point x="387" y="111" name="KNUQZNLC"/>
      <point x="353" y="85" type="curve" name="ZCKYCDPA"/>
      <point x="340" y="45" name="VPLEHLJY"/>
      <point x="326" y="0" name="UGVTXIDS"/>
    </contour>
  </outline>
</glyph>
<glyph name="Thorn" format="2">
  <advance width="419"/>
  <unicode hex="00DE"/>
  <outline>
    <contour>
      <point x="-42" y="-66" type="curve" name="PLKVZODM"/>
      <point x="-3" y="-58" name="QNEUNOSE"/>
      <point x="37" y="-52" name="QRCZDQDY"/>
      <point x="77" y="-50" type="curve" name="LMXQENTW"/>
      <point x="89" y="-6" name="XLMVNJRG"/>
      <point x="102" y="37" name="QVHGGUCU"/>
      <point x="115" y="75" type="curve" name="VXSGQUMJ"/>
      <point x="136" y="76" name="ZRYZSFPQ"/>
      <point x="156" y="77" name="KSMYPAEE"/>
      <point x="176" y="77" type="curve" smooth="yes" name="IFFYQOGJ"/>
      <point x="274" y="76" name="MPBSBNHG"/>
      <point x="385" y="170" name="ZBGJNQPW"/>
      <point x="456" y="270" type="curve" smooth="yes" name="EWZPKDPI"/>
      <point x="526" y="370" name="BYWJQMGM"/>
      <point x="510" y="409" name="OBOWYHTH"/>
      <point x="402" y="409" type="curve" smooth="yes" name="ZIRMWLIN"/>
      <point x="385" y="409" name="FMYJUEBK"/>
      <point x="368" y="408" name="DNSQIPUP"/>
      <point x="351" y="407" type="curve" name="BDGKBOZL"/>
      <point x="372" y="418" name="ZIQORZCX"/>
      <point x="395" y="426" name="SOBJIZWM"/>
      <point x="417" y="431" type="curve" name="DFEVKYAT"/>
      <point x="377" y="429" name="BWWFDNZR"/>
      <point x="337" y="423" name="UUNFRBEV"/>
      <point x="298" y="414" type="curve" name="VHCJUEHG"/>
      <point x="149" y="383" name="DRVVDPFY"/>
      <point x="33" y="219" name="VQVWAVDV"/>
    </contour>
    <contour>
      <point x="313" y="341" type="curve" smooth="yes" name="CGWDTVWQ"/>
      <point x="348" y="341" name="WGULPQWS"/>
      <point x="351" y="320" name="IXOGCNKZ"/>
      <point x="328" y="287" type="curve" smooth="yes" name="VRFXJZTV"/>
      <point x="305" y="255" name="OGHALGAB"/>
      <point x="268" y="227" name="SHKTDRXI"/>
      <point x="239" y="227" type="curve" smooth="yes" name="FKUSHPXG"/>
      <point x="220" y="228" name="PWKXVKCW"/>
      <point x="200" y="227" name="SBGRUZJF"/>
      <point x="181" y="226" type="curve" name="OKYTFXIW"/>
      <point x="205" y="270" name="FZCIFIFZ"/>
      <point x="233" y="309" name="PQRZUQMV"/>
      <point x="262" y="339" type="curve" name="QGMWWBSV"/>
      <point x="278" y="340" name="EZXSABKF"/>
      <point x="296" y="340" name="KGMMHUYW"/>
    </contour>
  </outline>
</glyph>
<glyph name="eth" format="2">
  <advance width="407"/>
  <unicode hex="00F0"/>
  <outline>
    <contour>
      <point x="242" y="389" type="curve" name="JLUGOUDJ"/>
      <point x="284" y="400" name="JTWAJPRU"/>
      <point x="326" y="408" name="KISWLVLE"/>
      <point x="369" y="414" type="curve" name="KIVYPLCW"/>
      <point x="366" y="400" name="GIRGJDSF"/>
      <point x="362" y="384" name="WPGNTKDW"/>
      <point x="356" y="371" type="curve" name="ENESDWMY"/>
      <point x="315" y="405" name="CIHVKYUT"/>
      <point x="127" y="392" name="ZJBVPQKZ"/>
      <point x="26" y="197" type="curve" smooth="yes" name="XTRMSKFI"/>
      <point x="-40" y="65" name="IHEYTEAI"/>
      <point x="-10" y="-65" name="PCKAWXYC"/>
      <point x="96" y="-64" type="curve" smooth="yes" name="BKEVFKPZ"/>
      <point x="205" y="-63" name="CRISBCKY"/>
      <point x="323" y="74" name="EZUMVLYB"/>
      <point x="416" y="236" type="curve" smooth="yes" name="XAOTTMMK"/>
      <point x="471" y="330" name="OGRGGABT"/>
      <point x="495" y="390" name="DKAKICIP"/>
      <point x="504" y="425" type="curve" name="VLMMDLAK"/>
      <point x="522" y="425" name="DRWYDLRV"/>
      <point x="540" y="425" name="MTCMJBRT"/>
      <point x="558" y="425" type="curve" name="TSBTLNVF"/>
      <point x="572" y="438" name="DRMOYDYZ"/>
      <point x="588" y="448" name="OFHONQXZ"/>
      <point x="605" y="455" type="curve" name="VURZXHIO"/>
      <point x="573" y="456" name="PSWGNILO"/>
      <point x="541" y="457" name="PGYCTFTE"/>
      <point x="510" y="456" type="curve" name="RKRHYFKE"/>
      <point x="510" y="458" name="TQCXCEJU"/>
      <point x="510" y="461" name="NVJKMWGV"/>
      <point x="510" y="463" type="curve" name="HYWXRNNA"/>
      <point x="463" y="465" name="CKFAIHJY"/>
      <point x="416" y="463" name="QXSHMRSN"/>
      <point x="371" y="458" type="curve" name="KTJUPIIL"/>
      <point x="373" y="456" name="MZKQHBCG"/>
      <point x="374" y="453" name="CJIPRAOQ"/>
      <point x="374" y="446" type="curve" name="CECCUDZI"/>
      <point x="344" y="442" name="UXKXNWIO"/>
      <point x="315" y="436" name="RDFIVVVJ"/>
      <point x="286" y="430" type="curve" name="XKLZBWCO"/>
      <point x="271" y="420" name="KLQTSDZU"/>
      <point x="256" y="406" name="OWACPUWQ"/>
    </contour>
    <contour>
      <point x="159" y="109" type="curve" name="JFKIHIQR"/>
      <point x="119" y="109" name="NEOMMDJN"/>
      <point x="109" y="154" name="TKNWIMJU"/>
      <point x="138" y="211" type="curve" smooth="yes" name="YCUUFUHF"/>
      <point x="167" y="269" name="OKOMHLVV"/>
      <point x="217" y="301" name="HSMFEUNX"/>
      <point x="257" y="301" type="curve" smooth="yes" name="ZRJLNCML"/>
      <point x="297" y="301" name="CGQQSYFC"/>
      <point x="302" y="269" name="FMMRMGZG"/>
      <point x="274" y="214" type="curve" smooth="yes" name="BFUOHEGD"/>
      <point x="244" y="156" name="SCGIDIQE"/>
      <point x="199" y="109" name="XUXUAWBZ"/>
      <point x="159" y="109" type="curve" name="SCQLOOQE"/>
      <point x="159" y="109" name="FKWPUYUB"/>
      <point x="159" y="109" name="QQUWYFTU"/>
    </contour>
  </outline>
</glyph>
<glyph name="oslash" format="2">
  <advance width="424"/>
  <unicode hex="00F8"/>
  <outline>
    <contour>
      <point x="-62" y="-44" type="curve" name="JWJBRDJO"/>
      <point x="-44" y="-63" name="QUJJPIQV"/>
      <point x="-24" y="-85" name="ONRPADGN"/>
      <point x="-5" y="-107" type="curve" name="JZUODWUD"/>
      <point x="12" y="-75" name="LVBXTXGK"/>
      <point x="32" y="-44" name="RAAXVSPO"/>
      <point x="50" y="-16" type="curve" name="AXHQLTIA"/>
      <point x="65" y="-22" name="NKSDHCMS"/>
      <point x="82" y="-26" name="JSMBFNLL"/>
      <point x="101" y="-26" type="curve" smooth="yes" name="HARMTQJN"/>
      <point x="212" y="-26" name="XAOJYJIY"/>
      <point x="340" y="101" name="ZXCVJKBL"/>
      <point x="419" y="212" type="curve" smooth="yes" name="JSWZWQCN"/>
      <point x="460" y="270" name="FZVPAHJR"/>
      <point x="477" y="307" name="OBEWFZTW"/>
      <point x="468" y="330" type="curve" name="BVOWGCAX"/>
      <point x="494" y="338" name="YKGNEMGU"/>
      <point x="521" y="344" name="OYNWXCAC"/>
      <point x="548" y="349" type="curve" name="KJOFMQQE"/>
      <point x="533" y="357" name="CUYTTUTA"/>
      <point x="517" y="365" name="TWAGEWHZ"/>
      <point x="503" y="370" type="curve" name="LLNNJBCW"/>
      <point x="477" y="368" name="JVCBDXOX"/>
      <point x="451" y="363" name="NNSWNNGL"/>
      <point x="425" y="357" type="curve" name="QIABEGSL"/>
      <point x="412" y="361" name="QPIOIQBE"/>
      <point x="396" y="361" name="YVZJDSFO"/>
      <point x="376" y="361" type="curve" smooth="yes" name="ULOVMINN"/>
      <point x="266" y="361" name="RQXUXTFT"/>
      <point x="112" y="324" name="YGXXOBLO"/>
      <point x="33" y="212" type="curve" smooth="yes" name="IMBVNAMA"/>
      <point x="-8" y="155" name="TRLCYFHZ"/>
      <point x="-17" y="92" name="KEWPQGZT"/>
      <point x="-2" y="45" type="curve" name="AMQUMVMU"/>
      <point x="-23" y="18" name="HIACNGOM"/>
      <point x="-42" y="-14" name="MKXKYEYH"/>
    </contour>
    <contour>
      <point x="144" y="228" type="curve" name="QTEOEVKA"/>
      <point x="183" y="283" name="DPQHAVMB"/>
      <point x="243" y="310" name="AYGLFUOC"/>
      <point x="290" y="310" type="curve" smooth="yes" name="BOXMEVBU"/>
      <point x="292" y="310" name="MXVZGGST"/>
      <point x="293" y="310" name="LMGQJQNK"/>
      <point x="294" y="310" type="curve" name="WWTHHAOA"/>
      <point x="234" y="280" name="QTFGPJPR"/>
      <point x="176" y="238" name="MQXZYUZI"/>
      <point x="122" y="187" type="curve" name="CYHWFXGI"/>
      <point x="126" y="200" name="CQWWWDUW"/>
      <point x="133" y="214" name="WRAXDLRZ"/>
      <point x="144" y="228" type="curve" name="KYLEVNPV"/>
      <point x="144" y="228" name="VLOVCGNL"/>
      <point x="144" y="228" name="RYYAEASW"/>
    </contour>
    <contour>
      <point x="158" y="124" type="curve" name="JJWXBOIG"/>
      <point x="156" y="124" name="BBRLSHDB"/>
      <point x="156" y="124" name="NEIPKMAS"/>
      <point x="155" y="124" type="curve" name="PKAVZDLB"/>
      <point x="206" y="180" name="YGQZIRAR"/>
      <point x="263" y="229" name="GKEFCKMI"/>
      <point x="321" y="265" type="curve" name="EFGMBUGT"/>
      <point x="316" y="255" name="KSKJYVHO"/>
      <point x="309" y="242" name="VDPZRLET"/>
      <point x="299" y="228" type="curve" smooth="yes" name="BQMZWRQW"/>
      <point x="260" y="173" name="PKMTYGSZ"/>
      <point x="205" y="124" name="IHSJCXXC"/>
      <point x="158" y="124" type="curve" name="FQPTDANH"/>
      <point x="158" y="124" name="HOYSZISG"/>
      <point x="158" y="124" name="RFLNEIKC"/>
    </contour>
  </outline>
</glyph>
<glyph name="thorn" format="2">
  <advance width="438"/>
  <unicode hex="00FE"/>
  <outline>
    <contour>
      <point x="-13" y="-178" type="curve" name="SPAHTJPL"/>
      <point x="8" y="-98" name="DIIITBHL"/>
      <point x="32" y="-25" name="YXFONMQE"/>
      <point x="58" y="40" type="curve" name="PLLQVCAN"/>
      <point x="69" y="13" name="YLPWFKYD"/>
      <point x="93" y="-3" name="XGHNQSKJ"/>
      <point x="127" y="-3" type="curve" smooth="yes" name="TPTRAUNZ"/>
      <point x="223" y="-5" name="JDVPDODB"/>
      <point x="350" y="108" name="CWTJUYAO"/>
      <point x="429" y="227" type="curve" smooth="yes" name="QVYRCMVF"/>
      <point x="508" y="347" name="KRAFQFER"/>
      <point x="490" y="399" name="LIHSXLPW"/>
      <point x="395" y="400" type="curve" smooth="yes" name="BNRCMGKF"/>
      <point x="361" y="401" name="FTNFXEMI"/>
      <point x="321" y="393" name="DLKKXYMX"/>
      <point x="282" y="379" type="curve" name="QYICNFRJ"/>
      <point x="328" y="416" name="UHKXXUTJ"/>
      <point x="379" y="440" name="JXYUBJEN"/>
      <point x="432" y="451" type="curve" name="PTNMHOQT"/>
      <point x="395" y="448" name="SRSYDZHD"/>
      <point x="356" y="443" name="STCQUIBG"/>
      <point x="320" y="435" type="curve" name="IGJPHGSE"/>
      <point x="125" y="393" name="ZHCUXJGC"/>
      <point x="-26" y="180" name="NOJLBKZJ"/>
      <point x="-125" y="-194" type="curve" name="HAXEMUJW"/>
      <point x="-89" y="-187" name="YHALPBCB"/>
      <point x="-50" y="-181" name="WZIWKWPG"/>
    </contour>
    <contour>
      <point x="172" y="141" type="curve" name="TWPZNNVN"/>
      <point x="127" y="141" name="KEUESRVH"/>
      <point x="120" y="187" name="PSNSAOAH"/>
      <point x="157" y="243" type="curve" smooth="yes" name="GROSUBFO"/>
      <point x="195" y="299" name="AXYBANYT"/>
      <point x="251" y="329" name="QBIVLLFI"/>
      <point x="296" y="329" type="curve" smooth="yes" name="TEZWMNCJ"/>
      <point x="342" y="329" name="QJNBOHTV"/>
      <point x="345" y="300" name="VTKTTEFX"/>
      <point x="307" y="243" type="curve" smooth="yes" name="CPQNSLUJ"/>
      <point x="269" y="187" name="LNRKFEHH"/>
      <point x="218" y="142" name="FKVURWYY"/>
      <point x="172" y="141" type="curve" name="PVZRSNRC"/>
      <point x="172" y="141" name="VMKYCTMQ"/>
      <point x="172" y="141" name="ZGFBSIXF"/>
    </contour>
  </outline>
</glyph>
<glyph name="dotlessi" format="2">
  <advance width="195"/>
  <unicode hex="0131"/>
  <outline>
    <contour>
      <point x="-54" y="-49" type="curve" name="CMTDOOZY"/>
      <point x="-18" y="-41" name="KOSNGAUU"/>
      <point x="23" y="-41" name="UESPHVEK"/>
      <point x="63" y="-49" type="curve" name="PKACHXDX"/>
      <point x="120" y="169" name="FCRQOQCI"/>
      <point x="208" y="293" name="NWMOEXNX"/>
      <point x="322" y="317" type="curve" name="YIZWYWFA"/>
      <point x="281" y="325" name="DDEIOCHZ"/>
      <point x="241" y="325" name="HRFGLQSY"/>
      <point x="205" y="317" type="curve" name="TVJRQXCS"/>
      <point x="91" y="293" name="UZHJCNXY"/>
      <point x="3" y="169" name="CLYJKCXH"/>
    </contour>
  </outline>
</glyph>
<glyph name="quotedblleft" format="2">
  <advance width="366"/>
  <unicode hex="201C"/>
  <outline>
    <contour>
      <point x="419" y="460" type="curve" name="SKOSAHYW"/>
      <point x="385" y="460" name="KSSZCFRU"/>
      <point x="351" y="458" name="JGJUTUSH"/>
      <point x="319" y="453" type="curve" name="OHBYPORB"/>
      <point x="240" y="438" name="UDZUGRCJ"/>
      <point x="175" y="366" name="KHDIORDR"/>
      <point x="128" y="245" type="curve" name="KVLEQFKK"/>
      <point x="165" y="252" name="XMMWFIFX"/>
      <point x="204" y="257" name="PXHRMFYK"/>
      <point x="243" y="260" type="curve" name="MLXRPJAP"/>
      <point x="285" y="378" name="LUQLWRWV"/>
      <point x="345" y="446" name="NFSACYTW"/>
    </contour>
    <contour>
      <point x="579" y="444" type="curve" name="OZFBZTLS"/>
      <point x="543" y="451" name="NUEAFZUF"/>
      <point x="508" y="455" name="TBJTCWNJ"/>
      <point x="474" y="458" type="curve" name="DMLIPJSW"/>
      <point x="394" y="446" name="ZSGXWOSY"/>
      <point x="328" y="378" name="RVMXXDKI"/>
      <point x="280" y="260" type="curve" name="EZHARQNV"/>
      <point x="319" y="260" name="XGONZVBP"/>
      <point x="361" y="257" name="YFIVXQME"/>
      <point x="402" y="251" type="curve" name="CXHCZRBU"/>
      <point x="445" y="368" name="GJGSAIGD"/>
      <point x="505" y="434" name="UMHSQGKC"/>
    </contour>
  </outline>
</glyph>
<glyph name="quotedblbase" format="2">
  <advance width="366"/>
  <unicode hex="201E"/>
  <outline>
    <contour>
      <point x="25" y="-93" type="curve" name="XNTXDOON"/>
      <point x="58" y="-93" name="CMYNOEIK"/>
      <point x="93" y="-95" name="OKBPHTCV"/>
      <point x="128" y="-100" type="curve" name="NMWUOZFW"/>
      <point x="177" y="17" name="MWGXKDRK"/>
      <point x="244" y="81" name="QVLRUHJU"/>
      <point x="324" y="91" type="curve" name="RLXFIFRD"/>
      <point x="282" y="99" name="UHBXXJBR"/>
      <point x="241" y="104" name="RSGKYIKW"/>
      <point x="200" y="106" type="curve" name="RJMDDSOK"/>
      <point x="127" y="93" name="AQUEVVSN"/>
      <point x="67" y="26" name="ARFRIHNQ"/>
    </contour>
    <contour>
      <point x="-127" y="-108" type="curve" name="KQVYUBZJ"/>
      <point x="-95" y="-101" name="HWBVKJBJ"/>
      <point x="-63" y="-97" name="NJOKVSDG"/>
      <point x="-29" y="-95" type="curve" name="DQAQYQBT"/>
      <point x="18" y="25" name="THKDRZUK"/>
      <point x="85" y="93" name="XVIERGZX"/>
      <point x="163" y="107" type="curve" name="NOYESNYM"/>
      <point x="124" y="107" name="FWWLYEXZ"/>
      <point x="85" y="103" name="HQEXDPUH"/>
      <point x="47" y="98" type="curve" name="CJZUIQFX"/>
      <point x="-26" y="83" name="UAFHXYAN"/>
      <point x="-86" y="13" name="ABHPXWXB"/>
    </contour>
  </outline>
</glyph>
<glyph name="fraction" format="2">
  <advance width="402"/>
  <unicode hex="2044"/>
  <outline>
    <contour>
      <point x="-75" y="-66" type="curve" name="EHETETDC"/>
      <point x="-45" y="-60" name="EHWFLKLQ"/>
      <point x="-14" y="-55" name="IBKRCMDZ"/>
      <point x="18" y="-52" type="curve" name="SQFAOMXR"/>
      <point x="183" y="242" name="MSKGDTKX"/>
      <point x="395" y="401" name="RRFCHHDH"/>
      <point x="642" y="414" type="curve" name="QIXEMUVI"/>
      <point x="608" y="421" name="DAJLJXMU"/>
      <point x="574" y="426" name="WLGLQKZM"/>
      <point x="540" y="429" type="curve" name="WAUTEDAO"/>
      <point x="296" y="406" name="XHGYMSIF"/>
      <point x="87" y="237" name="EKPUKGCV"/>
    </contour>
  </outline>
</glyph>
<glyph name="four.superior" format="2">
  <advance width="306"/>
  <unicode hex="2074"/>
  <outline>
    <contour>
      <point x="191" y="160" type="curve" name="FAXXNYQL"/>
      <point x="221" y="160" name="YYBNMCJU"/>
      <point x="251" y="158" name="LLBZGMAE"/>
      <point x="282" y="153" type="curve" name="FOEBUMME"/>
      <point x="291" y="187" name="QBRAPOAK"/>
      <point x="301" y="219" name="KGOGXFRV"/>
      <point x="311" y="246" type="curve" name="LQSXDZDQ"/>
      <point x="324" y="244" name="RVADEECM"/>
      <point x="339" y="242" name="YOUYPNHR"/>
      <point x="352" y="239" type="curve" name="DKKNOLHB"/>
      <point x="366" y="276" name="INWUNOSW"/>
      <point x="382" y="309" name="PJNDAWVR"/>
      <point x="399" y="336" type="curve" name="OZFLOCNG"/>
      <point x="386" y="338" name="DFJEIGWT"/>
      <point x="372" y="341" name="CHTPAIPQ"/>
      <point x="359" y="342" type="curve" name="NRVGBQKP"/>
      <point x="394" y="399" name="EUMNOBSO"/>
      <point x="437" y="433" name="UTHMGSZD"/>
      <point x="487" y="443" type="curve" name="QQUCFNXQ"/>
      <point x="443" y="449" name="JELSPEXG"/>
      <point x="398" y="450" name="JDVNQWPD"/>
      <point x="356" y="448" type="curve" name="MKWHJWFH"/>
      <point x="277" y="436" name="HYBIJVYB"/>
      <point x="203" y="398" name="SXBVJJPR"/>
      <point x="138" y="336" type="curve" name="WIPAPAZQ"/>
      <point x="122" y="309" name="TPMBCCVY"/>
      <point x="105" y="276" name="XJMWYBFZ"/>
      <point x="91" y="239" type="curve" name="UYBEKZEQ"/>
      <point x="132" y="248" name="XWYKWCPT"/>
      <point x="176" y="252" name="DKRFJADS"/>
      <point x="220" y="252" type="curve" name="LQSABJFX"/>
      <point x="210" y="225" name="RMTEEJAN"/>
      <point x="200" y="193" name="IZPBFPPJ"/>
    </contour>
    <contour>
      <point x="228" y="348" type="curve" name="TVDOKKYM"/>
      <point x="258" y="376" name="ZBKYBVVP"/>
      <point x="291" y="398" name="ZFVRNCKZ"/>
      <point x="325" y="415" type="curve" name="GPNPDFMO"/>
      <point x="304" y="399" name="XFEWZLBA"/>
      <point x="285" y="376" name="EJFIPAEJ"/>
      <point x="268" y="349" type="curve" name="XHOEUMCM"/>
      <point x="254" y="349" name="EQXNHMXA"/>
      <point x="241" y="349" name="UQUFUIUD"/>
    </contour>
  </outline>
</glyph>
<glyph name="divisionslash" format="2">
  <advance width="366"/>
  <unicode hex="2215"/>
  <outline>
    <contour>
      <point x="-138" y="-125" type="curve" name="HFBSZEKW"/>
      <point x="-100" y="-117" name="GUYWJYYK"/>
      <point x="-60" y="-112" name="NWLKABCB"/>
      <point x="-21" y="-108" type="curve" name="UMEWXAHO"/>
      <point x="158" y="235" name="IVLJJNUN"/>
      <point x="390" y="421" name="OSVUBWLP"/>
      <point x="664" y="441" type="curve" name="YXTBJNSW"/>
      <point x="621" y="448" name="ETZKMZRK"/>
      <point x="579" y="454" name="LHNZONYX"/>
      <point x="537" y="458" type="curve" name="HMQOANBC"/>
      <point x="267" y="427" name="SYNCYEHG"/>
      <point x="38" y="229" name="NSWLFENE"/>
    </contour>
  </outline>
</glyph>
<glyph name="circumflex.cap" format="2">
  <advance width="398"/>
  <anchor x="-82.0" y="680.0" name="top"/>
  <anchor x="198.0" y="680.0" name="center"/>
  <outline>
    <contour>
      <point x="318" y="498" type="curve" name="SOSBXWZO"/>
      <point x="355" y="506" name="TFYOGNDF"/>
      <point x="394" y="511" name="YDLVQZDJ"/>
      <point x="433" y="513" type="curve" name="ODWDADJO"/>
      <point x="454" y="549" name="QHPEUZPY"/>
      <point x="479" y="580" name="IIEXQPUT"/>
      <point x="505" y="601" type="curve" name="BONZXRHI"/>
      <point x="503" y="580" name="NVCEASTP"/>
      <point x="504" y="549" name="YBVXBTCD"/>
      <point x="507" y="513" type="curve" name="HTFXBHZD"/>
      <point x="547" y="511" name="SXHOEMHA"/>
      <point x="589" y="506" name="JWQSEQUX"/>
      <point x="631" y="498" type="curve" name="GIVYMPYI"/>
      <point x="619" y="587" name="RCGJTXET"/>
      <point x="619" y="638" name="NKHOWVJD"/>
      <point x="630" y="649" type="curve" name="EJGLVHZH"/>
      <point x="589" y="653" name="NGGSSPJO"/>
      <point x="546" y="653" name="NJVEUMUB"/>
      <point x="507" y="649" type="curve" name="QGUNIARR"/>
      <point x="433" y="638" name="FNPOUYYY"/>
      <point x="369" y="587" name="HZPFXLEL"/>
    </contour>
  </outline>
</glyph>
<glyph name="macron.cap" format="2">
  <advance width="346"/>
  <anchor x="-72.0" y="680.0" name="top"/>
  <anchor x="173.0" y="680.0" name="center"/>
  <outline>
    <contour>
      <point x="322" y="510" type="curve" name="TNTYXZOD"/>
      <point x="403" y="528" name="ADWDFXSV"/>
      <point x="492" y="528" name="GNDXCOSK"/>
      <point x="583" y="510" type="curve" name="STWQBYCS"/>
      <point x="599" y="571" name="XUAVHEKR"/>
      <point x="624" y="606" name="WQAGIEBC"/>
      <point x="656" y="612" type="curve" name="HYSLJVYR"/>
      <point x="564" y="630" name="KTZUHKGH"/>
      <point x="475" y="630" name="RNWFORJG"/>
      <point x="394" y="612" type="curve" name="BOWTTAZH"/>
      <point x="362" y="606" name="YMDKWMPM"/>
      <point x="338" y="571" name="YWXAEUOV"/>
    </contour>
  </outline>
</glyph>
<glyph name="t.alt" format="2">
  <advance width="310"/>
  <outline>
    <contour>
      <point x="43" y="129" type="curve" smooth="yes" name="KMARDNCV"/>
      <point x="-23" y="-28" name="HRXKHNZI"/>
      <point x="70" y="-83" name="FICYPPFC"/>
      <point x="191" y="-50" type="curve" name="HHJSMZTQ"/>
      <point x="208" y="11" name="IRTZDAEM"/>
      <point x="228" y="69" name="CTGORSCO"/>
      <point x="248" y="117" type="curve" name="NVBNNEJT"/>
      <point x="189" y="106" name="RQRJZXRK"/>
      <point x="153" y="121" name="RZAKTUYI"/>
      <point x="177" y="170" type="curve" smooth="yes" name="QCKBAROV"/>
      <point x="201" y="222" name="YSCNFJFG"/>
      <point x="230" y="267" name="HZRQBMCM"/>
      <point x="259" y="302" type="curve" name="EZTXNCFW"/>
      <point x="287" y="301" name="UTKMMUWG"/>
      <point x="316" y="296" name="AHOBFHCZ"/>
      <point x="344" y="291" type="curve" name="ORDIIXHE"/>
      <point x="370" y="322" name="VLHEZPSC"/>
      <point x="398" y="347" name="MSFHFZQH"/>
      <point x="427" y="366" type="curve" name="HZHHLXHP"/>
      <point x="399" y="371" name="DUPVSSVG"/>
      <point x="370" y="374" name="UHOYRVDO"/>
      <point x="342" y="376" type="curve" name="DCSANUVP"/>
      <point x="370" y="393" name="EZFEGJXO"/>
      <point x="399" y="406" name="UHCCFJXS"/>
      <point x="429" y="412" type="curve" name="OOUXCCHX"/>
      <point x="390" y="414" name="ZFTMECGI"/>
      <point x="350" y="414" name="CYLQIZZR"/>
      <point x="313" y="409" type="curve" name="KNCVKZBD"/>
      <point x="283" y="403" name="NDJNRXHS"/>
      <point x="254" y="391" name="HIQHFYAN"/>
      <point x="226" y="373" type="curve" name="OZPGXATC"/>
      <point x="208" y="371" name="AHTHNOEQ"/>
      <point x="190" y="368" name="XNAHOEDB"/>
      <point x="172" y="365" type="curve" name="CMGNHERK"/>
      <point x="142" y="347" name="TWSIMJUE"/>
      <point x="114" y="321" name="QVAVABXI"/>
      <point x="89" y="291" type="curve" name="SMRLKRNX"/>
      <point x="107" y="294" name="POPUZTVI"/>
      <point x="125" y="297" name="CVDZQADJ"/>
      <point x="143" y="299" type="curve" name="QOLANIGK"/>
      <point x="107" y="255" name="SKWKCCUZ"/>
      <point x="73" y="198" name="WRTKDAPV"/>
    </contour>
  </outline>
</glyph>
